<svg id="Component_78_1" data-name="Component 78 – 1" xmlns="http://www.w3.org/2000/svg" width="218.908" height="46.485" viewBox="0 0 218.908 46.485">
  <g id="Component_71_2" data-name="Component 71 – 2">
    <g id="Component_65_13" data-name="Component 65 – 13">
      <g id="OMiqPfyR_400x400">
        <path id="Path_1" data-name="Path 1" d="M18.049,38.732a6.867,6.867,0,0,1,5.277-6.819,7.266,7.266,0,0,0,5.827-6.246,9.356,9.356,0,0,0-.433-3.448A6.977,6.977,0,0,1,31.886,15a7.107,7.107,0,0,1,10.672,7.9c-.891,3-3.067,4.48-5.968,5.27-3.179.866-5.607,4.725-4.737,7.97a7.548,7.548,0,0,1-.643,6.283,7.1,7.1,0,0,1-13.161-3.694Z" transform="translate(-18.049 -13.905)" fill="#09bcd4"/>
        <path id="Path_2" data-name="Path 2" d="M98.587,102.053a6.925,6.925,0,0,1,.681-9.456,7,7,0,0,1,9.753.236,6.718,6.718,0,0,0,9.313.819,12.865,12.865,0,0,1,2.129-1.888,10.508,10.508,0,0,1,3.986-1.015,6.981,6.981,0,1,1-1.74,13.774,2.779,2.779,0,0,1-1.6-.622c-.25-.625-.889-.688-1.385-.957a8.734,8.734,0,0,0-3.9-2.379,7.087,7.087,0,0,0-6.959,2.183,6.79,6.79,0,0,1-8.808.7C99.548,103.01,99.125,102.472,98.587,102.053Z" transform="translate(-78.56 -72.763)" fill="#09bcd4"/>
        <path id="Path_3" data-name="Path 3" d="M142.72,25.388c-2.162-2.187-2.332-7.144.725-9.7a6.809,6.809,0,0,1,7.563-1.118,6.549,6.549,0,0,1,4.134,6.452,6.97,6.97,0,0,1-11.488,5.317A1.493,1.493,0,0,0,142.72,25.388Z" transform="translate(-112.33 -13.899)" fill="#09bcd4"/>
      </g>
    </g>
   	<g class="st1">
		<path class="st2" d="M80.5,35.1c0,2.4-1.7,3.8-4.5,3.8h-3.2v3.7H72V31.3h4C78.8,31.3,80.5,32.7,80.5,35.1z M79.7,35.1
			c0-1.9-1.3-3-3.7-3h-3.2v6.1H76C78.4,38.1,79.7,37,79.7,35.1z" fill="#212529" />
		<path class="st2" d="M86.7,34.1v0.8c-0.1,0-0.1,0-0.2,0c-1.9,0-3,1.2-3,3.3v4.4h-0.8v-8.4h0.8V36C84,34.7,85.1,34.1,86.7,34.1z" fill="#212529" />
		<path class="st2" d="M95.9,38.5h-7.2c0.1,2,1.5,3.3,3.5,3.3c1.1,0,2-0.4,2.7-1.2l0.5,0.5c-0.7,0.9-1.9,1.4-3.2,1.4
			c-2.5,0-4.3-1.8-4.3-4.2c0-2.5,1.7-4.2,4-4.2c2.3,0,4,1.7,4,4.2C95.9,38.3,95.9,38.4,95.9,38.5z M88.7,37.9h6.4
			c-0.1-1.8-1.4-3.1-3.2-3.1C90.1,34.8,88.8,36.1,88.7,37.9z" fill="#212529" />
		<path class="st2" d="M104.9,34.1l-3.8,8.4h-0.8l-3.8-8.4h0.8l3.3,7.5l3.4-7.5H104.9z" fill="#212529" />
		<path class="st2" d="M106.4,31.5c0-0.4,0.3-0.7,0.7-0.7s0.7,0.3,0.7,0.6c0,0.4-0.3,0.7-0.7,0.7S106.4,31.8,106.4,31.5z
			 M106.6,34.1h0.8v8.4h-0.8V34.1z" fill="#212529" />
		<path class="st2" d="M117.9,38.5h-7.2c0.1,2,1.5,3.3,3.5,3.3c1.1,0,2-0.4,2.7-1.2l0.5,0.5c-0.7,0.9-1.9,1.4-3.2,1.4
			c-2.5,0-4.3-1.8-4.3-4.2c0-2.5,1.7-4.2,4-4.2s4,1.7,4,4.2C117.9,38.3,117.9,38.4,117.9,38.5z M110.7,37.9h6.4
			c-0.1-1.8-1.4-3.1-3.2-3.1C112.1,34.8,110.8,36.1,110.7,37.9z" fill="#212529" />
		<path class="st2" d="M132.1,34.1l-3.2,8.4h-0.8l-2.8-7.3l-2.8,7.3h-0.7l-3.2-8.4h0.8l2.8,7.5l2.8-7.5h0.7l2.8,7.4l2.8-7.4H132.1z"
			fill="#212529" />
	</g>
  </g>
  <g id="logo" transform="translate(72.738 2.479)">
    <path id="Path_269" data-name="Path 269" d="M467.344,862.61a16.238,16.238,0,0,0-.2-9.8c0-.05-.042-.092-.058-.142h0a6.433,6.433,0,0,0-.367-.834c-.042-.092-.075-.2-.117-.292h0a9.683,9.683,0,0,0-8.432-5.388c-5.187-.317-9.333,2.419-10.842,7.247a16.3,16.3,0,0,0,0,9.858,9.508,9.508,0,0,0,2.444,4.17c2.944,2.836,6.53,3.336,10.317,2.444a9.316,9.316,0,0,0,6.38-5h0a10.938,10.938,0,0,0,.834-2.152v-.05Zm-10.008,3.061a4.47,4.47,0,0,1-4.454-3.436,11.834,11.834,0,0,1-.492-4.012,10.416,10.416,0,0,1,.834-4.821,4.337,4.337,0,0,1,4.437-2.727,4.17,4.17,0,0,1,3.928,3.136,14.76,14.76,0,0,1,.509,2.285,13.606,13.606,0,0,1,.075,1.668,13.094,13.094,0,0,1-.133,2.685q-.05.334-.125.676a1.428,1.428,0,0,1-.1.392c-.067.267-.125.525-.208.834a4.37,4.37,0,0,1-4.287,3.32Z" transform="translate(-321.835 -846.1)" fill="#2e576c"/>
    <path id="Path_270" data-name="Path 270" d="M411.155,862.561c2.193-4.879,4.362-9.624,6.439-14.412a2.1,2.1,0,0,1,2.285-1.443c2.927.083,2.652-.375,2.811,2.735q.475,9.491.976,18.99c.067,1.234-.108,1.409-1.3,1.418h-2.711c-1.1,0-1.359-.234-1.393-1.326-.1-2.635-.167-5.279-.259-7.915,0-1.026-.092-2.043-.133-3.086-.35.058-.342.359-.425.575q-2.218,5.246-4.462,10.534c-.292.7-.575,1.309-1.535,1.259s-2.118.167-2.736-1.2c-1.668-3.636-3.461-7.214-5.213-10.842-.05-.117-.108-.225-.192-.409-.35.309-.234.642-.234.934-.058,3.336-.1,6.672-.15,10.008,0,1.326-.158,1.459-1.5,1.468h-2.4a1.062,1.062,0,0,1-1.2-1.268q.317-6.672.592-13.344c.1-2.344.183-4.687.284-7.022.058-1.293.25-1.485,1.56-1.476,3.336,0,2.727-.359,4.17,2.5l6.43,12.977a2.7,2.7,0,0,0,.3.342Z" transform="translate(-313.743 -846.192)" fill="#2e576c"/>
    <path id="Path_271" data-name="Path 271" d="M353.9,855.122c1.927-2.5,3.82-4.946,5.646-7.423a2.2,2.2,0,0,1,2.027-.992h3.194c.442,0,1.009-.175,1.268.342s-.183.834-.467,1.226q-2.711,3.428-5.446,6.847c-1.493,1.86-1.493,1.852-.15,3.811l6.422,9.341c.25.367.676.734.4,1.243s-.834.3-1.268.309c-1.034,0-2.077-.05-3.1,0a2.619,2.619,0,0,1-2.61-1.435c-1.368-2.235-2.811-4.412-4.17-6.672-.317-.509-.475-.667-.951-.092a3.52,3.52,0,0,0-.934,2.594c.092,1.451,0,2.9,0,4.362,0,.834-.309,1.218-1.176,1.193q-1.551-.05-3.1,0c-.834,0-1.109-.334-1.109-1.134V847.716c0-.784.342-1.076,1.068-1.076h3.1c.884,0,1.251.325,1.226,1.234-.042,2.11,0,4.228,0,6.347A1.134,1.134,0,0,0,353.9,855.122Z" transform="translate(-305.535 -846.185)" fill="#2e566c"/>
    <path id="Path_272" data-name="Path 272" d="M316.443,869.854c-3.186,0-2.644.275-3.686-2.577-.834-2.21-.784-2.218-3.178-2.218h-5.1c-.55,0-.834.125-1,.692-.259.951-.684,1.868-.926,2.827a1.526,1.526,0,0,1-1.877,1.3,19.383,19.383,0,0,0-2.2,0c-1.576,0-1.735-.234-1.168-1.751l2.227-5.946c1.768-4.7,3.57-9.383,5.279-14.1a1.743,1.743,0,0,1,1.993-1.343,19.249,19.249,0,0,0,2.5,0,1.6,1.6,0,0,1,1.776,1.218c2.385,6.23,4.8,12.452,7.206,18.673.275.709.567,1.409.834,2.135s0,1.151-.834,1.118C317.643,869.837,317.018,869.854,316.443,869.854Zm-8.6-17.231c-.917,2.827-1.735,5.4-2.577,7.956-.133.375,0,.459.334.459h4.387c.467,0,.559-.125.4-.584-.484-1.393-.926-2.811-1.376-4.22C308.611,855.117,308.253,854,307.844,852.623Z" transform="translate(-297.01 -846.196)" fill="#2e576c"/>
    <path id="Path_273" data-name="Path 273" d="M374.53,858.236V848.028c0-.926.309-1.318,1.268-1.318h12.7c.884,0,1.326.267,1.143,1.218-.108.55-.133,1.118-.192,1.668-.158,1.343-.284,1.468-1.668,1.468h-6.9c-.834,0-1.026.259-.976,1.017a20.449,20.449,0,0,1,0,2.769c-.067.834.15,1.151,1.076,1.118,2.027-.075,4.062,0,6.1,0,1.343,0,1.543.217,1.551,1.56,0,3.219.067,2.777-2.777,2.794h-5.2c-.567,0-.751.183-.742.742,0,1.218.05,2.444,0,3.661,0,.667.2.834.834.834h7.506c1.3,0,1.468.15,1.46,1.409,0,3.336.325,2.911-2.9,2.919h-10.9c-1.176,0-1.334-.15-1.334-1.309Q374.53,863.39,374.53,858.236Z" transform="translate(-309.878 -846.196)" fill="#2e576c"/>
    <path id="Path_274" data-name="Path 274" d="M327,858.231V848.114c0-1.218.15-1.368,1.376-1.384h2.6c1.284,0,1.451.167,1.451,1.426v16.363c0,.659.2.834.834.834h7.206c1.268,0,1.435.175,1.435,1.426v2.085c0,.692-.284,1-.942,1H327.947c-.9,0-.967-.626-.967-1.3v-8.031Z" transform="translate(-301.985 -846.2)" fill="#2e576c"/>
    <path id="Path_275" data-name="Path 275" d="M434.907,858.211V848.1c0-1.184.183-1.376,1.384-1.393h2.8c.934,0,1.2.375,1.2,1.218v20.708c0,.884-.375,1.259-1.268,1.226s-1.935,0-2.894,0-1.251-.359-1.243-1.251C434.915,865.15,434.907,861.68,434.907,858.211Z" transform="translate(-319.897 -846.196)" fill="#2f576d"/>
  </g>
</svg>
