<?xml version="1.0" encoding="UTF-8" standalone="no"?>
<svg width="15" height="18" viewBox="0 0 15 18" fill="none" xmlns="http://www.w3.org/2000/svg">
<path d="M12.2656 9.25781C12.2656 9.33594 12.1484 11.6406 14.6875 12.8516C14.2188 14.2969 12.5781 17.5 10.6641 17.5C9.57031 17.5 8.94531 16.7969 7.69531 16.7969C6.40625 16.7969 5.70312 17.5 4.72656 17.5C2.85156 17.5781 1.05469 14.0625 0.546875 12.6172C0.15625 11.5234 0 10.4688 0 9.45312C0 5.97656 2.30469 4.29688 4.49219 4.25781C5.54688 4.25781 6.875 5 7.46094 5C8.00781 5 9.53125 4.10156 10.9375 4.21875C12.3828 4.33594 13.4766 4.88281 14.2188 5.9375C12.9297 6.75781 12.2656 7.8125 12.2656 9.25781ZM10.0781 2.85156C9.29688 3.75 8.35938 4.25781 7.34375 4.17969C7.26562 3.125 7.65625 2.14844 8.35938 1.36719C8.98438 0.664062 10.0781 0.078125 11.0156 0C11.0156 0.429688 11.1328 1.60156 10.0781 2.85156Z"/>
</svg>