<svg width="22" height="23" viewBox="0 0 22 23" fill="none" xmlns="http://www.w3.org/2000/svg">
<path d="M2 20C1.45 20 0.979167 19.8042 0.5875 19.4125C0.195833 19.0208 0 18.55 0 18V4C0 3.45 0.195833 2.97917 0.5875 2.5875C0.979167 2.19583 1.45 2 2 2H3V0H5V2H13V0H15V2H16C16.55 2 17.0208 2.19583 17.4125 2.5875C17.8042 2.97917 18 3.45 18 4V10H16V8H2V18H11V20H2ZM2 6H16V4H2V6Z" fill="#1C1B1F"/>
<path d="M17.0511 22.5276L12.5511 17.9123L13.6011 16.8353L16.3011 19.6046V12.5276H17.8011V19.6046L20.5011 16.8353L21.5511 17.9123L17.0511 22.5276Z" fill="#1C1B1F"/>
</svg>
