<svg xmlns="http://www.w3.org/2000/svg" fill="none" viewBox="0 0 24 24" id="Eye-Tracking--Streamline-Rounded-Material" height="24" width="24">
  <desc>
    Eye Tracking Streamline Icon: https://streamlinehq.com
  </desc>
  <path fill="#000000" d="M2.5 23c-0.4 0 -0.75 -0.15 -1.05 -0.45 -0.3 -0.3 -0.45 -0.65 -0.45 -1.05v-2.325c0 -0.2125 0.072335 -0.39065 0.217 -0.5345 0.1445 -0.14365 0.323665 -0.2155 0.5375 -0.2155 0.213665 0 0.391335 0.07185 0.533 0.2155 0.141665 0.14385 0.2125 0.322 0.2125 0.5345V21.5h2.325c0.2125 0 0.39065 0.07235 0.5345 0.217 0.14365 0.1445 0.2155 0.32365 0.2155 0.5375 0 0.21365 -0.07185 0.39135 -0.2155 0.533 -0.14385 0.14165 -0.322 0.2125 -0.5345 0.2125H2.5Zm19 0h-2.325c-0.2125 0 -0.3906 -0.07235 -0.53425 -0.217 -0.14385 -0.1445 -0.21575 -0.32365 -0.21575 -0.5375 0 -0.21365 0.0719 -0.39135 0.21575 -0.533 0.14365 -0.14165 0.32175 -0.2125 0.53425 -0.2125H21.5v-2.325c0 -0.2125 0.07235 -0.39065 0.217 -0.5345 0.1445 -0.14365 0.32365 -0.2155 0.5375 -0.2155 0.21365 0 0.39135 0.07185 0.533 0.2155 0.14165 0.14385 0.2125 0.322 0.2125 0.5345V21.5c0 0.4 -0.15 0.75 -0.45 1.05 -0.3 0.3 -0.65 0.45 -1.05 0.45Zm-9.525 -4.625c-1.81665 0 -3.475 -0.47915 -4.975 -1.4375 -1.5 -0.95835 -2.691665 -2.27915 -3.575 -3.9625 -0.083335 -0.15 -0.141665 -0.30725 -0.175 -0.47175 -0.033335 -0.1645 -0.05 -0.33225 -0.05 -0.50325 0 -0.175 0.01875 -0.34375 0.05625 -0.50625 0.0375 -0.1625 0.09375 -0.31875 0.16875 -0.46875 0.883335 -1.7 2.075 -3.02915 3.575 -3.9875 1.5 -0.95835 3.15835 -1.4375 4.975 -1.4375 1.81665 0 3.47915 0.47915 4.9875 1.4375 1.50835 0.95835 2.70415 2.2875 3.5875 3.9875 0.08335 0.15 0.14165 0.30835 0.175 0.475 0.03335 0.16665 0.05 0.33335 0.05 0.5 0 0.16665 -0.01665 0.33335 -0.05 0.5 -0.03335 0.16665 -0.09165 0.325 -0.175 0.475 -0.88335 1.68335 -2.07915 3.00415 -3.5875 3.9625 -1.50835 0.95835 -3.17085 1.4375 -4.9875 1.4375Zm0 -1.5c1.55 0 2.99165 -0.4375 4.325 -1.3125C17.63335 14.6875 18.65 13.5 19.35 12c-0.7 -1.5 -1.71665 -2.69165 -3.05 -3.575 -1.33335 -0.88335 -2.775 -1.325 -4.325 -1.325 -1.55 0 -2.9875 0.44165 -4.3125 1.325C6.3375 9.30835 5.325 10.5 4.625 12c0.7 1.5 1.7125 2.6875 3.0375 3.5625 1.325 0.875 2.7625 1.3125 4.3125 1.3125Zm0.0305 -1.575c0.913 0 1.6945 -0.32265 2.3445 -0.968 0.65 -0.64535 0.975 -1.4245 0.975 -2.3375 0 -0.913 -0.3244 -1.6945 -0.97325 -2.3445 -0.64885 -0.65 -1.43215 -0.975 -2.35 -0.975s-1.6976 0.3244 -2.33925 0.97325c-0.64165 0.64885 -0.9625 1.43215 -0.9625 2.35s0.32265 1.6976 0.968 2.33925c0.64535 0.64165 1.4245 0.9625 2.3375 0.9625Zm-0.0055 -1.5c-0.5 0 -0.925 -0.175 -1.275 -0.525 -0.35 -0.35 -0.525 -0.775 -0.525 -1.275 0 -0.5 0.175 -0.92915 0.525 -1.2875 0.35 -0.35835 0.775 -0.5375 1.275 -0.5375 0.5 0 0.92915 0.1774 1.2875 0.53225 0.35835 0.35485 0.5375 0.78575 0.5375 1.29275 0 0.5 -0.1774 0.925 -0.53225 1.275 -0.35485 0.35 -0.78575 0.525 -1.29275 0.525ZM4.825 2.5H2.5v3.075H1V2.5c0 -0.4 0.15 -0.75 0.45 -1.05C1.75 1.15 2.1 1 2.5 1h2.325c0.2125 0 0.39065 0.072335 0.5345 0.217 0.14365 0.1445 0.2155 0.323665 0.2155 0.5375 0 0.213665 -0.07185 0.391335 -0.2155 0.533 -0.14385 0.141665 -0.322 0.2125 -0.5345 0.2125ZM23 2.5v2.325c0 0.2125 -0.07235 0.3906 -0.217 0.53425 -0.1445 0.14385 -0.32365 0.21575 -0.5375 0.21575 -0.21365 0 -0.39135 -0.0719 -0.533 -0.21575C21.57085 5.2156 21.5 5.0375 21.5 4.825V2.5h-2.325c-0.2125 0 -0.3906 -0.072335 -0.53425 -0.217 -0.14385 -0.1445 -0.21575 -0.323665 -0.21575 -0.5375 0 -0.213665 0.0719 -0.391335 0.21575 -0.533C18.7844 1.070835 18.9625 1 19.175 1H21.5c0.4 0 0.75 0.15 1.05 0.45 0.3 0.3 0.45 0.65 0.45 1.05Z" stroke-width="0.5"></path>
</svg>
