<?xml version="1.0" encoding="utf-8"?>
<!-- Generator: Adobe Illustrator 24.3.0, SVG Export Plug-In . SVG Version: 6.00 Build 0)  -->
<svg version="1.1" id="Layer_2" xmlns="http://www.w3.org/2000/svg" xmlns:xlink="http://www.w3.org/1999/xlink" x="0px" y="0px"
	 viewBox="0 0 900 200" enable-background="new 0 0 900 200" xml:space="preserve">
<g>
	<path fill="#FFFFFF" d="M197.3,54.1c-0.5,0-0.8,0.4-0.8,0.8v45.5c-1-1.7-2.3-3.2-3.9-4.4V55c0-0.5-0.4-0.8-0.8-0.8
		s-0.8,0.4-0.8,0.8v40c-1.2-0.6-2.5-1.1-3.9-1.3V55c0-0.5-0.4-0.8-0.8-0.8s-0.8,0.4-0.8,0.8v38.6c-0.1,0-0.3,0-0.4,0h-37.1
		c-3.2,0-5.9-2.6-5.9-5.9V55c0-0.5-0.4-0.8-0.8-0.8s-0.8,0.4-0.8,0.8v32.7c0,2.4,1.1,4.5,2.8,5.9h-0.9c-3.2,0-5.9-2.6-5.9-5.9V55
		c0-0.5-0.4-0.8-0.8-0.8c-0.5,0-0.8,0.4-0.8,0.8v32.7c0,4.2,3.4,7.6,7.6,7.6h42.7c5.8,0,10.7,4.3,11.5,9.8
		c-2.2-3.5-6.1-5.9-10.5-5.9c-0.4,0-44.2,0-44.8,0c-2.8-0.1-5.4-1.2-7.4-3.2c-2-2-3.1-4.7-3.1-7.5V55c0-0.5-0.4-0.8-0.8-0.8
		c-0.5,0-0.8,0.4-0.8,0.8v90.1c0,0.5,0.4,0.8,0.8,0.8c0.5,0,0.8-0.4,0.8-0.8V99.7c1,1.7,2.3,3.2,3.9,4.4v41.1c0,0.5,0.4,0.8,0.8,0.8
		c0.5,0,0.8-0.4,0.8-0.8v-40c1.2,0.6,2.5,1.1,3.9,1.3v38.8c0,0.5,0.4,0.8,0.8,0.8s0.8-0.4,0.8-0.8v-38.6c0.1,0,43.2,0,43.2,0
		c0.1,0,0.2,0,0.2,0v38.6c0,0.5,0.4,0.8,0.8,0.8s0.8-0.4,0.8-0.8v-38.3c2.3,0.8,3.9,3,3.9,5.5v32.7c0,0.5,0.4,0.8,0.8,0.8
		s0.8-0.4,0.8-0.8v-32.7c0-4.2-3.4-7.6-7.6-7.6h-42.7c-5.8,0-10.6-4.3-11.5-9.8c0.5,0.8,1,1.5,1.7,2.2c2.3,2.3,5.3,3.6,8.6,3.7
		c0.1,0,31.4,0,44.8,0c5.9,0,10.7,4.8,10.7,10.7v33.5c0,0.5,0.4,0.8,0.8,0.8s0.8-0.4,0.8-0.8v-33.5V55
		C198.2,54.5,197.8,54.1,197.3,54.1z"/>
	<path fill="#FFFFFF" d="M121.6,131.3c-4.1,4.1-8.8,7.2-14.1,9.5c-5.5,2.3-11.2,3.5-17.2,3.5c-10.3,0-20-4-27.3-11.3
		c-6.1-6.2-10-14-11-22.5c4.5,17,20,29.6,38.3,29.9l0,0c5.4,0,10.7-1.1,15.7-3.2c4.8-2,9.1-4.9,12.8-8.6c0.3-0.3,0.3-0.9,0-1.2
		c-0.3-0.3-0.9-0.3-1.2,0c-7.3,7.3-17,11.3-27.3,11.3c-16.4-0.3-30.3-10.8-35.6-25.4c6.8,12.9,20.4,21.5,35.6,21.5
		c9.3,0,18-3.6,24.5-10.1c0.3-0.3,0.3-0.9,0-1.2c-0.3-0.3-0.9-0.3-1.2,0c-6.2,6.2-14.5,9.6-23.3,9.6c-18.5,0-34.5-13.2-37.9-31.4
		c0,0,0,0,0,0l0,0c0-0.3-0.1-0.6-0.1-0.8c0-0.2-0.1-0.5-0.1-0.6c0-0.2,0.1-0.5,0.1-0.7c0-0.3,0.1-0.6,0.1-0.8
		c1.6-8.7,6.3-16.7,13.1-22.5c3.4-2.9,7.2-5.1,11.4-6.6c4.3-1.6,8.8-2.4,13.4-2.4c8.8,0,17.1,3.4,23.3,9.6c0.3,0.3,0.9,0.3,1.2,0
		c0.3-0.3,0.3-0.9,0-1.2c-6.5-6.5-15.2-10.1-24.5-10.1c-4.8,0-9.5,0.8-14,2.5c-4.3,1.6-8.3,3.9-11.9,6.9c-4.3,3.6-7.8,8.1-10.2,13
		c5-15.2,19.3-26.1,36.1-26.4c10.3,0,20,4,27.3,11.3c0.3,0.3,0.9,0.3,1.2,0c0.3-0.3,0.3-0.9,0-1.2c-3.7-3.7-8-6.6-12.8-8.6
		c-5-2.1-10.2-3.2-15.7-3.2l0,0C72.1,60.1,56.8,72.3,52.1,89C53.2,80.7,57,73.1,63,67.1c7.3-7.3,17-11.3,27.3-11.3
		c6,0,11.8,1.2,17.2,3.5c5.3,2.2,10,5.4,14.1,9.5c0.3,0.3,0.9,0.3,1.2,0c0.3-0.3,0.3-0.9,0-1.2c-4.2-4.2-9.1-7.5-14.6-9.8
		c-5.7-2.4-11.7-3.6-17.9-3.6c-5.4,0-10.7,1.1-15.7,3.2c-4.8,2-9.1,4.9-12.8,8.6c-3.7,3.7-6.6,8-8.6,12.8C51.1,83.7,50,89,50,94.4
		c0,1.6,0.4,4.9,0.5,5.8c-0.2,1.5-0.4,3.5-0.4,5.5c0,5.4,1.1,10.7,3.2,15.7c2,4.8,4.9,9.1,8.6,12.8c3.7,3.7,8,6.6,12.8,8.6
		c5,2.1,10.2,3.2,15.7,3.2c6.2,0,12.2-1.2,17.9-3.6c5.5-2.3,10.4-5.6,14.6-9.8c0.3-0.3,0.3-0.9,0-1.2
		C122.4,131,121.9,131,121.6,131.3z"/>
	<path fill="#FFFFFF" d="M349.6,112.2h3.6c0.1,0,0.2,0,0.2,0l7.1,0l0,0c7-0.1,13.5-3,18.4-8.1c4.8-5,7.4-11.7,7.3-18.7v-6
		c0-0.1,0-0.3-0.1-0.4c-0.3-6.5-3-12.6-7.6-17.2c-4.9-4.9-11.5-7.7-18.5-7.7l-138.9,0c-7.4,0-13.4,6-13.4,13.4v65.1
		c0,7.4,6,13.4,13.4,13.4h43.2c0.5,0,0.8-0.4,0.8-0.8s-0.4-0.8-0.8-0.8h-43.2c-5.8,0-10.6-4.3-11.5-9.8c0.5,0.8,1,1.5,1.7,2.2
		c2.3,2.3,5.3,3.6,8.6,3.7c0.1,0,31.2,0,44.5,0c0.5,0,0.8-0.4,0.8-0.8c0-0.5-0.4-0.8-0.8-0.8c-0.4,0-43.9,0-44.5,0
		c-2.8-0.1-5.4-1.2-7.4-3.2c-2-2-3.1-4.7-3.1-7.5V72.1c0-2.8,1.1-5.5,3.1-7.5c2-2,4.6-3.1,7.4-3.2c0.6,0,73.4,0,73.4,0
		c6.3,0,12.3,2.4,16.9,6.7c0,0,0,0,0.1,0.1c1.3,2.8,2,5.8,2.1,8.9c-2.1-3.1-4.8-5.8-8-7.8c-4.2-2.6-8.9-4-13.9-4l-63.8,0.1h-5.6
		c-4.2,0-7.6,3.4-7.6,7.6v54.2c0,4.2,3.4,7.6,7.6,7.6h5.6h36.2h1.5c0.5,0,0.8-0.4,0.8-0.8c0-0.5-0.4-0.8-0.8-0.8h-1.5h-36.2
		c-3.2,0-5.9-2.6-5.9-5.9V112h32.9c0.5,0,0.8-0.4,0.8-0.8c0-0.5-0.4-0.8-0.8-0.8h-32.9v-3.8h32.9c0.5,0,0.8-0.4,0.8-0.8
		c0-0.5-0.4-0.8-0.8-0.8h-32.9v-3.7h32.9c0.5,0,0.8-0.4,0.8-0.8s-0.4-0.8-0.8-0.8h-32.9V73c0-3.2,2.6-5.9,5.9-5.9l63.8-0.1
		c4.6,0,9.1,1.3,13,3.7c3.7,2.3,6.7,5.6,8.8,9.4c-1.3,10.8-10.6,19-21.5,19h-8.5c-8.2,0-14.9,6.7-14.9,14.9c0,4.5,2,8.7,5.5,11.6
		c0.1,0.1,0.2,0.2,0.4,0.3l0,0l1,0.8c0.5,0.5,1.1,0.9,1.6,1.3l22.4,17.7c0.2,0.1,0.3,0.2,0.5,0.2c0.2,0,0.5-0.1,0.7-0.3
		c0.3-0.4,0.2-0.9-0.1-1.2l-22.4-17.7c0,0,0,0,0,0l-1.6-1.2c-2.2-2.1-3.4-4.9-3.4-8c0-6,4.9-10.9,10.9-10.9l3.9,0l8.4-0.1
		c4.1,0,8-0.9,11.7-2.7c3.5-1.7,6.6-4.3,9-7.4c1.3-1.7,2.4-3.5,3.3-5.4c0.1-0.1,0.1-0.3,0.2-0.4c-0.9,4.6-3.1,8.9-6.4,12.3
		c-4.5,4.7-10.6,7.4-17.2,7.5l-10.4,0c-0.2,0-0.5,0-0.7,0c0,0,0,0-0.1,0c-2.2,0.2-4.2,1.5-5.3,3.4c0,0-0.1,0.1-0.1,0.1
		c-0.6,1-0.9,2.2-0.9,3.5c0,2.2,1,4.2,2.7,5.5l28.8,22.8c0.2,0.1,0.3,0.2,0.5,0.2c0.2,0,0.5-0.1,0.7-0.3c0.3-0.4,0.2-0.9-0.1-1.2
		L282,121.7c-1.3-1-2-2.6-2-4.2c0-0.2,0-0.4,0-0.5c0.2,0.2,0.4,0.4,0.6,0.6l36,28.2c0.2,0.1,0.3,0.2,0.5,0.2c0.3,0,0.5-0.1,0.7-0.3
		c0.3-0.4,0.2-0.9-0.1-1.2l-36-28.2c-0.5-0.4-0.8-1-0.9-1.6c0.8-1.3,2.3-2.2,3.9-2.4h3.6c0.1,0,0.2,0,0.2,0l7.1,0l0,0
		c7-0.1,13.5-3,18.4-8.1c4.8-5,7.4-11.7,7.3-18.7v-6c0-0.1,0-0.3-0.1-0.4c-0.2-4.3-1.4-8.4-3.6-12h37.6c4.6,0,9.1,1.3,13,3.7
		c3.7,2.3,6.7,5.6,8.8,9.4c-1.3,10.8-10.6,19-21.5,19h-8.5c-8.2,0-14.9,6.7-14.9,14.9c0,4.5,2,8.7,5.5,11.6c0.1,0.1,0.2,0.2,0.4,0.3
		l0,0l1,0.8c0.5,0.5,1.1,0.9,1.6,1.3l22.4,17.7c0.2,0.1,0.3,0.2,0.5,0.2c0.2,0,0.5-0.1,0.7-0.3c0.3-0.4,0.2-0.9-0.1-1.2l-22.4-17.7
		c0,0,0,0,0,0l-1.6-1.2c-2.2-2.1-3.4-4.9-3.4-8c0-6,4.9-10.9,10.9-10.9l3.9,0l8.4-0.1c4.1,0,8-0.9,11.7-2.7c3.5-1.7,6.6-4.3,9-7.4
		c1.3-1.7,2.4-3.5,3.3-5.4c0.1-0.1,0.1-0.3,0.2-0.4c-0.9,4.6-3.1,8.9-6.4,12.3c-4.5,4.7-10.6,7.4-17.2,7.5l-10.4,0
		c-0.2,0-0.5,0-0.7,0c0,0,0,0-0.1,0c-2.2,0.2-4.2,1.5-5.3,3.4c0,0-0.1,0.1-0.1,0.1c-0.6,1-0.9,2.2-0.9,3.5c0,2.2,1,4.2,2.7,5.5
		l28.8,22.8c0.2,0.1,0.3,0.2,0.5,0.2c0.2,0,0.5-0.1,0.7-0.3c0.3-0.4,0.2-0.9-0.1-1.2l-28.8-22.8c-1.3-1-2-2.6-2-4.2
		c0-0.2,0-0.4,0-0.5c0.2,0.2,0.4,0.4,0.6,0.6l36,28.2c0.2,0.1,0.3,0.2,0.5,0.2c0.3,0,0.5-0.1,0.7-0.3c0.3-0.4,0.2-0.9-0.1-1.2
		l-36-28.2c-0.5-0.4-0.8-1-0.9-1.6C346.6,113.3,348,112.4,349.6,112.2z M219,73v54.2c0,2.4,1.1,4.5,2.8,5.9h-0.9
		c-3.2,0-5.9-2.6-5.9-5.9V73c0-3.2,2.6-5.9,5.9-5.9h0.9C220.1,68.5,219,70.6,219,73z M356,55.8c4,0.1,7.8,1.2,11.2,3.3
		c2.1,1.3,3.9,2.9,5.4,4.8c-4.2-2.7-9.1-4.2-14.3-4.2h-46.9c-2.1-1.7-4.5-3-6.9-3.9L356,55.8z M219.9,59.8c-3.2,0.1-6.3,1.4-8.6,3.7
		c-0.6,0.7-1.2,1.4-1.7,2.2c0.9-5.6,5.7-9.8,11.5-9.8l69.9,0c4,0.1,7.8,1.2,11.2,3.3c2.1,1.3,3.9,2.9,5.4,4.8
		c-4.2-2.7-9.1-4.2-14.3-4.2C293.3,59.8,219.9,59.8,219.9,59.8z M317.5,90.3c-0.8,1.8-1.8,3.5-3.1,5.1c-4.7,6-11.7,9.5-19.4,9.5
		l-8.4,0.1l-3.9,0c-7,0-12.6,5.7-12.6,12.6c0,0.9,0.1,1.8,0.3,2.6c-1-1.9-1.5-3.9-1.5-6.1c0-7.3,5.9-13.2,13.2-13.2h8.5
		c11.8,0,21.8-8.8,23.2-20.6c0-0.1,0-0.1,0-0.2c0,0,0,0,0,0c0.1-0.9,0.1-1.7,0.1-2.6c0-3.6-0.8-7.1-2.4-10.3
		c-1.9-3.8-4.8-7.1-8.5-9.4c-0.7-0.4-1.4-0.9-2.2-1.2c10.7,2.6,18.7,12.3,18.7,23.8C319.6,83.8,318.9,87.2,317.5,90.3z M369.2,69.3
		c-4.2-2.6-8.9-4-13.9-4h-38.7c-0.9-1.2-1.9-2.4-3-3.5c-0.1-0.1-0.2-0.2-0.4-0.4h44.9c6.3,0,12.3,2.4,16.9,6.7c0,0,0,0,0.1,0.1
		c1.3,2.8,2,5.8,2.1,8.9C375.1,74,372.4,71.3,369.2,69.3z M382.4,90.3c-0.8,1.8-1.8,3.5-3.1,5.1c-4.7,6-11.7,9.5-19.4,9.5l-8.4,0.1
		l-3.9,0c-7,0-12.6,5.7-12.6,12.6c0,0.9,0.1,1.8,0.3,2.6c-1-1.9-1.5-3.9-1.5-6.1c0-7.3,5.9-13.2,13.2-13.2h8.5
		c11.8,0,21.8-8.8,23.2-20.6c0-0.1,0-0.1,0-0.2c0,0,0,0,0,0c0.1-0.9,0.1-1.7,0.1-2.6c0-3.6-0.8-7.1-2.4-10.3
		c-1.9-3.8-4.8-7.1-8.5-9.4c-0.7-0.4-1.4-0.9-2.2-1.2c10.7,2.6,18.7,12.3,18.7,23.8C384.5,83.8,383.8,87.2,382.4,90.3z"/>
	<path fill="#FFFFFF" d="M849.2,61.5c0.5,0,0.8-0.4,0.8-0.8c0-0.5-0.4-0.8-0.8-0.8h-34.4c-1.2-1.6-2.7-3-4.4-3.9h38.8
		c0.5,0,0.8-0.4,0.8-0.8c0-0.5-0.4-0.8-0.8-0.8c0,0-118,0-118.1,0h-4.2c-7,0-13.5,2.4-18.5,6.8c-4.8,4.2-7.5,9.8-7.7,15.8
		c0,0.1-0.1,0.2-0.1,0.3v5.4c-0.1,5.8,2.1,11.5,6.3,15.9c4.8,5,11.9,8,19.3,8.2l15.7,0c10.8,0,20,7,21.4,16.3c-2,3.1-5,5.6-8.7,7.4
		c-3.8,1.9-8.3,2.8-12.9,2.8c0,0-58.1,0-58.1,0V55c0-0.5-0.4-0.8-0.8-0.8c-0.5,0-0.8,0.4-0.8,0.8v77.7c-2.3-0.8-3.9-3-3.9-5.5V55
		c0-0.5-0.4-0.8-0.8-0.8c-0.5,0-0.8,0.4-0.8,0.8v72.2c0,4.2,3.4,7.6,7.6,7.6l57.9,0c4.9,0,9.6-1,13.7-3c3.3-1.6,6.1-3.8,8.2-6.4
		c0,0,0,0,0,0c0,2.8-0.7,5.4-2,7.9c0,0-0.1,0-0.1,0.1c-4.6,3.4-10.6,5.3-16.9,5.3l-61.6,0c-5.9,0-10.7-4.8-10.7-10.7V55
		c0-0.5-0.4-0.8-0.8-0.8c-0.5,0-0.8,0.4-0.8,0.8v73v4.6c0,7.4,6,13.4,13.4,13.4h57.9c0.1,0,0.3,0,0.4,0h4c7,0,13.5-2.4,18.5-6.8
		c4.6-4.1,7.3-9.5,7.6-15.2c0.1-0.1,0.1-0.2,0.1-0.4V118c0.1-6-2.2-11.9-6.5-16.4c-2.4-2.5-5.2-4.4-8.4-5.8
		c-3.3-1.5-6.9-2.2-10.6-2.3l-15.7,0c-10.5,0-19.4-6.6-21.3-15.4c0,0,0-0.1,0.1-0.1c4.2-6.8,12.2-10.9,21.4-10.9h66.9
		c3.2,0,5.9,2.6,5.9,5.9v72.2c0,0.5,0.4,0.8,0.8,0.8c0.5,0,0.8-0.4,0.8-0.8V73c0-2.4-1.1-4.5-2.8-5.9h0.9c3.2,0,5.9,2.6,5.9,5.9
		v72.2c0,0.5,0.4,0.8,0.8,0.8c0.5,0,0.8-0.4,0.8-0.8V73c0-4.2-3.4-7.6-7.6-7.6h-72.5c-4.9,0-9.6,1.1-13.6,3.2
		c-3.3,1.7-6.1,4.1-8.2,6.9c0-0.3,0-0.6,0-0.9c0-2.6,0.6-5.1,1.8-7.5c0.1,0,0.2-0.1,0.3-0.1c4.6-3.6,10.6-5.6,16.9-5.6l76.2,0.1
		c5.9,0,10.7,4.8,10.7,10.7v73c0,0.5,0.4,0.8,0.8,0.8c0.5,0,0.8-0.4,0.8-0.8v-73v-4.6c0-0.1,0-0.3,0-0.4h31.9c0.5,0,0.8-0.4,0.8-0.8
		c0-0.5-0.4-0.8-0.8-0.8h-32.1c-0.2-1.4-0.7-2.7-1.3-3.9H849.2z M672.4,134.5c2.2,3.5,6.1,5.9,10.5,5.9l61.6,0
		c5.2,0,10.3-1.2,14.5-3.5c-1.5,1.8-3.4,3.3-5.6,4.5c-3.4,1.9-7.3,2.9-11.3,2.9l-58.2,0C678.2,144.3,673.3,140,672.4,134.5z
		 M753.1,143.4c0.4-0.2,0.8-0.4,1.2-0.6c3.6-2,6.6-4.9,8.5-8.3c1.6-2.9,2.4-5.9,2.4-9.2c0-0.8-0.1-1.7-0.2-2.5
		c-1.4-10.3-11.4-18.1-23.1-18.1l-15.6,0c-7-0.1-13.5-2.9-18.1-7.6c-3-3.1-4.9-6.9-5.6-10.9c0.1,0.2,0.2,0.5,0.3,0.7
		c0.9,1.7,2,3.4,3.3,4.8c5,5.7,12.5,9,20.6,9l8.4,0.1h11.1c7.6,0,14.7,3.1,19.3,8.4c1.2,1.4,2.2,2.9,3,4.5c1.4,2.8,2.1,5.7,2.1,8.8
		C770.9,132.5,763.3,140.9,753.1,143.4z M708,74.7c0,0.8,0.1,1.7,0.2,2.5c1.4,10.3,11.4,18.1,23.1,18.1H747c3.5,0.1,6.9,0.8,10,2.2
		c3,1.3,5.7,3.2,7.9,5.5c2.9,3,4.8,6.7,5.6,10.6c-0.1-0.2-0.1-0.3-0.2-0.5c-0.9-1.7-2-3.4-3.3-4.9c-5-5.7-12.5-9-20.6-9h-11.1
		l-8.4-0.1c-7.6,0-14.7-3.1-19.3-8.4c-1.2-1.4-2.2-2.9-3-4.5c-1.4-2.8-2.1-5.7-2.1-8.7c0-9.9,7.5-18.2,17.7-20.8
		c-0.4,0.2-0.8,0.4-1.2,0.6c-3.6,2-6.6,4.9-8.5,8.2C708.9,68.4,708,71.5,708,74.7z M804.9,59.8l-76.2-0.1c-5.3,0-10.5,1.4-14.8,3.9
		c1.6-1.9,3.6-3.5,5.9-4.8c3.4-1.9,7.3-2.9,11.3-2.9h4.2c0,0,0.1,0,0.1,0l68.5,0c5.8,0,10.7,4.3,11.5,9.8
		C813.2,62.1,809.3,59.8,804.9,59.8z"/>
	<path fill="#FFFFFF" d="M662.7,54.2c-0.5-0.1-0.9,0.2-1,0.6L639.6,139l-0.2,0.9c-0.6,1.7-1.8,3-3.3,3.7c-0.6-0.3-1.2-0.7-1.7-1.2
		c0,0,0,0,0,0c0.4-0.6,0.8-1.3,1-2c0,0,0,0,0-0.1l0.2-0.9l22.1-84.2c0.1-0.5-0.2-0.9-0.6-1c-0.5-0.1-0.9,0.2-1,0.6L633.9,139
		l-0.2,0.9c-0.1,0.4-0.3,0.8-0.5,1.1c-0.2-0.4-0.4-0.7-0.5-1.1l-0.2-0.9c0,0,0,0,0,0c0,0,0,0,0,0l-1.2-4.6l0.7-2.8l20.1-76.4
		c0.1-0.5-0.2-0.9-0.6-1c-0.5-0.1-0.9,0.2-1,0.6l-20,76.3l-2.3-8.9L621.5,97c-0.1-0.3-0.2-0.7-0.3-1c0,0,0,0,0,0c0,0,0,0,0,0
		c0,0,0,0,0,0c0,0,0,0,0,0c-0.8-2.4-2.7-4.2-5-5.1c0,0,0,0-0.1,0c-0.1,0-0.2-0.1-0.3-0.1c0,0-0.1,0-0.1,0c-0.1,0-0.1,0-0.2-0.1
		c-0.1,0-0.1,0-0.2,0c-0.1,0-0.1,0-0.2,0c-0.1,0-0.2,0-0.3-0.1c-0.1,0-0.1,0-0.2,0c-0.1,0-0.1,0-0.2,0c-0.1,0-0.1,0-0.2,0
		c-0.1,0-0.1,0-0.2,0c-0.1,0-0.2,0-0.2,0c0,0-0.1,0-0.1,0c-0.1,0-0.2,0-0.4,0c-0.1,0-0.2,0-0.4,0c0,0-0.1,0-0.1,0
		c-0.1,0-0.2,0-0.2,0c-0.1,0-0.1,0-0.2,0c-0.1,0-0.1,0-0.2,0c-0.1,0-0.1,0-0.2,0c-0.1,0-0.1,0-0.2,0c-0.1,0-0.2,0-0.3,0.1
		c-0.1,0-0.1,0-0.2,0c-0.1,0-0.1,0-0.2,0c-0.1,0-0.1,0-0.2,0.1c0,0-0.1,0-0.1,0c-0.1,0-0.2,0.1-0.3,0.1c0,0,0,0-0.1,0c0,0,0,0,0,0
		c-0.9-0.3-1.8-0.5-2.8-0.5c-3.5,0-6.6,2.2-7.7,5.6c0,0,0,0,0,0c0,0,0,0,0,0c0,0,0,0,0,0c-0.1,0.3-0.2,0.7-0.3,1l-9,34.1l-20-76.3
		c-0.1-0.5-0.6-0.7-1-0.6c-0.5,0.1-0.7,0.6-0.6,1l20.1,76.4l0.8,3c0,0,0,0,0,0l1.3,4.8c0,0,0,0,0,0c0.1,0.3,0.2,0.7,0.3,1
		c0,0,0,0,0,0c0,0,0,0,0,0c0.3,0.9,0.8,1.8,1.4,2.6c0,0,0,0,0,0c0.2,0.2,0.4,0.4,0.6,0.6c0.2,0.2,0.4,0.4,0.7,0.6c0,0,0,0-0.1,0
		c-0.1,0-0.1,0-0.2,0c0,0-0.1,0-0.1,0c-0.1,0-0.2,0-0.3,0c-0.1,0-0.2,0-0.3,0c0,0-0.1,0-0.1,0c-0.1,0-0.1,0-0.2,0c0,0-0.1,0-0.1,0
		c0,0-0.1,0-0.1,0c-0.1,0-0.1,0-0.2,0c0,0-0.1,0-0.1,0c-0.1,0-0.2,0-0.3-0.1c0,0-0.1,0-0.1,0c-0.1,0-0.1,0-0.2,0c0,0-0.1,0-0.1,0
		c0,0-0.1,0-0.1,0c-0.1,0-0.1,0-0.2-0.1c0,0,0,0-0.1,0c-0.1,0-0.2-0.1-0.3-0.1c0,0,0,0,0,0c0,0,0,0,0,0c-1.7-0.7-3-2.1-3.6-3.9
		l-0.2-0.9l-22.1-84.2c-0.1-0.5-0.6-0.7-1-0.6c-0.5,0.1-0.7,0.6-0.6,1l22.1,84.2c0.1,0.3,0.2,0.7,0.3,1c0,0,0,0,0,0
		c0.5,1.6,1.5,2.9,2.7,3.8c-0.2,0-0.4,0-0.6,0c-2.8,0-5.2-1.8-6.1-4.4l-0.2-0.9l-22.1-84.2c-0.1-0.5-0.6-0.7-1-0.6c0,0,0,0,0,0
		c0,0-0.1,0-0.1,0h-81.1c-0.2,0-0.3,0-0.5,0.1c-0.1,0.1-0.3,0.1-0.3,0.3l-37.8,49l0,0l0,0c-2.8,2.9-6.2,5.1-10,6.4c0,0,0,0,0,0
		c-1.8,0.6-3.7,1-5.7,1.2c-1.6,0.1-3.3,0.1-4.9-0.1c-5.9-0.7-11.4-3.5-15.4-8c-2.8-3.1-4.7-6.9-5.7-10.9c0.5,0.9,1,1.9,1.6,2.7
		c2.4,3.5,5.7,6.4,9.6,8.3c3.4,1.6,7,2.4,10.7,2.4c0.9,0,1.8,0,2.7-0.1c0.1,0,0.1,0,0.2,0c5-0.6,9.6-2.6,13.3-5.8
		c3.9-3.4,34.1-42.5,35.4-44.1c0.3-0.4,0.2-0.9-0.2-1.2c-0.4-0.3-0.9-0.2-1.2,0.2c-0.3,0.4-31.4,40.5-35.2,43.9
		c-2.3,2-5,3.5-7.9,4.4L463,55.4c0.3-0.4,0.2-0.9-0.1-1.2c-0.4-0.3-0.9-0.2-1.2,0.1l-38,48.9c0,0,0,0.1-0.1,0.1
		c-0.6,0.1-1.2,0.2-1.8,0.3c-0.1,0-0.1,0-0.2,0l0,0c-0.2,0-0.4,0-0.6,0.1c-3.9-2-7.3-5.1-9.6-8.8c-2.4-3.9-3.7-8.4-3.7-13V55.1
		c0-0.5-0.4-0.8-0.8-0.8s-0.8,0.4-0.8,0.8V82c0,4.9,1.4,9.7,4,13.9c2,3.2,4.7,5.9,7.8,8c-2.9-0.2-5.8-0.9-8.4-2.1c0,0,0,0,0,0
		c-4.6-4.9-7.2-10.8-7.2-16.8v-30c0-0.5-0.4-0.8-0.8-0.8s-0.8,0.4-0.8,0.8v30c0,5,1.6,9.9,4.6,14.3c-1.9-1.5-3.6-3.2-5-5.3
		c-2.3-3.4-3.5-7.3-3.6-11.3l0-27.7c0-0.5-0.4-0.8-0.8-0.8s-0.8,0.4-0.8,0.8l0,31.8c0,6.5,2.4,12.7,6.7,17.5c4,4.4,9.2,7.3,15,8.3
		l-24.9,32.1c-0.3,0.4-0.2,0.9,0.1,1.2c0.2,0.1,0.3,0.2,0.5,0.2c0.3,0,0.5-0.1,0.7-0.3l25.5-32.9c0.8,0.1,1.7,0.1,2.5,0.1
		c0.7,0,1.5,0,2.2-0.1c0.2,0,0.3,0,0.5,0c-10.3,13-18.9,23.7-25.5,31.8c-0.3,0.4-0.2,0.9,0.1,1.2c0.2,0.1,0.3,0.2,0.5,0.2
		c0.2,0,0.5-0.1,0.7-0.3c6.9-8.4,15.8-19.6,26.7-33.3c1.9-0.4,3.7-1,5.5-1.7c1-0.4,1.9-0.9,2.8-1.5l-27.3,35.4
		c-0.3,0.4-0.2,0.9,0.2,1.2c0.2,0.1,0.3,0.2,0.5,0.2c0.3,0,0.5-0.1,0.7-0.3l31.6-41l0,0l0,0c0,0,0,0,0,0L469,67.1h34.8
		c3.2,0,5.9,2.6,5.9,5.9v72.2c0,0.5,0.4,0.8,0.8,0.8s0.8-0.4,0.8-0.8V73c0-2.4-1.1-4.5-2.8-5.9h0.9c3.2,0,5.9,2.6,5.9,5.9v72.2
		c0,0.5,0.4,0.8,0.8,0.8c0.5,0,0.8-0.4,0.8-0.8V73c0-4.2-3.4-7.6-7.6-7.6h-39.2l3-3.9c0,0,0,0,0.1,0c13.2,0,36.9,0,36.9,0
		c5.9,0,10.7,4.8,10.7,10.7v73c0,0.5,0.4,0.8,0.8,0.8c0.5,0,0.8-0.4,0.8-0.8v-73v-4.6c0-0.1,0-0.3,0-0.4h38.5l19,72.3
		c0.1,0.3,0.2,0.7,0.3,1c0,0,0,0,0,0c1.1,3.3,4.2,5.6,7.7,5.6c1,0,1.9-0.2,2.8-0.5c0,0,0,0,0,0c0,0,0,0,0.1,0c0.1,0,0.2,0.1,0.3,0.1
		c0,0,0.1,0,0.1,0c0.1,0,0.1,0,0.2,0.1c0.1,0,0.1,0,0.2,0c0.1,0,0.1,0,0.2,0c0.1,0,0.2,0,0.3,0.1c0.1,0,0.1,0,0.2,0
		c0.1,0,0.1,0,0.2,0c0.1,0,0.1,0,0.2,0c0.1,0,0.1,0,0.2,0c0.1,0,0.2,0,0.2,0c0,0,0.1,0,0.1,0c0.1,0,0.2,0,0.4,0c0.1,0,0.2,0,0.4,0
		c0,0,0.1,0,0.1,0c0.1,0,0.2,0,0.2,0c0.1,0,0.1,0,0.2,0c0.1,0,0.1,0,0.2,0c0.1,0,0.1,0,0.2,0c0.1,0,0.1,0,0.2,0c0.1,0,0.2,0,0.3-0.1
		c0.1,0,0.1,0,0.2,0c0.1,0,0.1,0,0.2,0c0.1,0,0.1,0,0.2-0.1c0,0,0.1,0,0.1,0c0.1,0,0.2-0.1,0.3-0.1c0,0,0,0,0.1,0
		c2.3-0.8,4.1-2.7,5-5.1c0,0,0,0,0,0c0,0,0,0,0,0c0,0,0,0,0,0c0,0,0,0,0,0c0.1-0.3,0.2-0.7,0.3-1c0,0,0,0,0,0l9-34.1l8.9,34.1
		c0,0,0,0,0,0c0.1,0.3,0.2,0.7,0.3,1c0,0,0,0,0,0v0c0,0,0,0,0,0c0,0,0,0,0,0c1.1,3.3,4.2,5.6,7.7,5.6c1,0,1.9-0.2,2.8-0.5
		c0,0,0,0,0,0c0,0,0,0,0.1,0c0.1,0,0.2,0.1,0.3,0.1c0,0,0.1,0,0.1,0c0.1,0,0.1,0,0.2,0.1c0.1,0,0.1,0,0.2,0c0.1,0,0.1,0,0.2,0
		c0.1,0,0.2,0,0.3,0.1c0.1,0,0.1,0,0.2,0c0.1,0,0.1,0,0.2,0c0.1,0,0.1,0,0.2,0c0.1,0,0.1,0,0.2,0c0.1,0,0.2,0,0.2,0c0,0,0.1,0,0.1,0
		c0.1,0,0.2,0,0.4,0s0.2,0,0.4,0c0,0,0.1,0,0.1,0c0.1,0,0.2,0,0.2,0c0.1,0,0.1,0,0.2,0c0.1,0,0.1,0,0.2,0c0.1,0,0.1,0,0.2,0
		c0.1,0,0.1,0,0.2,0c0.1,0,0.2,0,0.3-0.1c0.1,0,0.1,0,0.2,0c0.1,0,0.1,0,0.2,0c0.1,0,0.1,0,0.2-0.1c0,0,0.1,0,0.1,0
		c0.1,0,0.2-0.1,0.3-0.1c0,0,0,0,0.1,0c2.3-0.8,4.2-2.7,5-5.1c0,0,0,0,0,0c0,0,0,0,0,0c0.1-0.3,0.2-0.7,0.3-1l22.1-84.2
		C663.4,54.8,663.2,54.3,662.7,54.2z M558.1,55.8l1,3.9h-39c-1.2-1.6-2.7-3-4.4-3.9H558.1z M510.3,59.8c0,0-22.3,0-35.6,0l3-3.9
		h31.6c5.8,0,10.7,4.3,11.5,9.8C518.6,62.1,514.7,59.8,510.3,59.8z M522.5,65.4c-0.2-1.4-0.7-2.7-1.3-3.9h38.5l1,3.9H522.5z
		 M619.7,96.5l0.2,0.9c0,0,0,0,0,0l6.5,25.3l2.4,9c0,0,0,0,0,0l0.8,3c0,0,0,0,0,0l1.3,4.8c0,0,0,0,0,0c0.1,0.3,0.2,0.7,0.3,1
		c0,0,0,0,0,0c0,0,0,0,0,0c0,0,0,0,0,0c0,0,0,0,0,0c0,0,0,0,0,0c0,0,0,0,0,0c0,0,0,0,0,0c0.3,0.9,0.8,1.8,1.4,2.6c0,0,0,0,0,0
		c0.2,0.2,0.4,0.4,0.6,0.6c0.2,0.2,0.4,0.4,0.7,0.6c0,0,0,0-0.1,0c-0.1,0-0.1,0-0.2,0c0,0-0.1,0-0.1,0c-0.1,0-0.2,0-0.3,0
		c-0.1,0-0.2,0-0.3,0c0,0-0.1,0-0.1,0c-0.1,0-0.1,0-0.2,0c0,0-0.1,0-0.1,0c0,0-0.1,0-0.1,0c-0.1,0-0.1,0-0.2,0c0,0-0.1,0-0.1,0
		c-0.1,0-0.2,0-0.3-0.1c0,0-0.1,0-0.1,0c-0.1,0-0.1,0-0.2,0c0,0-0.1,0-0.1,0c0,0-0.1,0-0.1,0c-0.1,0-0.1,0-0.2-0.1c0,0,0,0-0.1,0
		c-0.1,0-0.2-0.1-0.3-0.1c0,0,0,0,0,0c0,0,0,0,0,0c-1.7-0.7-3-2.1-3.6-3.9l-0.2-0.9c0,0,0,0,0,0l-10.9-42.1l-0.2-0.9c0,0,0,0,0-0.1
		c-0.2-0.7-0.6-1.4-1-2c0,0,0,0,0,0c0.5-0.5,1.1-0.9,1.7-1.2C617.9,93.4,619.1,94.8,619.7,96.5z M601.5,97.4
		C601.5,97.4,601.5,97.4,601.5,97.4l0.2-0.9c0.9-2.6,3.4-4.4,6.1-4.4c0.2,0,0.4,0,0.6,0c-1.2,1-2.2,2.3-2.7,3.8c0,0,0,0,0,0
		c0,0,0,0,0,0c0,0,0,0,0,0c0,0,0,0,0,0c-0.1,0.3-0.2,0.7-0.3,1c0,0,0,0,0,0l-11,42l-0.2,0.9c-0.1,0.4-0.3,0.8-0.5,1.1
		c-0.2-0.4-0.4-0.7-0.5-1.1l0-0.2L593,139c0,0,0,0,0,0l-1.2-4.6l0.7-2.8L601.5,97.4z M596.5,143.6c-0.6-0.3-1.2-0.7-1.7-1.2
		c0,0,0,0,0,0c0.4-0.6,0.8-1.3,1-2c0,0,0,0,0-0.1l0.2-0.9l11-42c0,0,0,0,0,0l0.2-0.9c0.6-1.8,2-3.2,3.6-3.9c0,0,0,0,0,0c0,0,0,0,0,0
		c0.1,0,0.2-0.1,0.3-0.1c0,0,0.1,0,0.1,0c0.1,0,0.1,0,0.2-0.1c0,0,0.1,0,0.1,0c0,0,0.1,0,0.1,0c0.1,0,0.1,0,0.2,0c0,0,0.1,0,0.1,0
		c0.1,0,0.2,0,0.3-0.1c0,0,0.1,0,0.1,0c0.1,0,0.1,0,0.2,0c0,0,0.1,0,0.1,0c0,0,0.1,0,0.1,0c0.1,0,0.1,0,0.2,0c0,0,0.1,0,0.1,0
		c0.1,0,0.2,0,0.3,0c0.1,0,0.2,0,0.3,0c0,0,0.1,0,0.1,0c0.1,0,0.1,0,0.2,0c0,0,0,0,0.1,0c-0.2,0.2-0.5,0.4-0.7,0.6
		c-0.2,0.2-0.4,0.4-0.6,0.6c0,0,0,0,0,0c-0.6,0.8-1.1,1.7-1.5,2.6c0,0,0,0,0,0c0,0,0,0,0,0c0,0,0,0,0,0c0,0,0,0,0,0
		c-0.1,0.3-0.2,0.7-0.3,1c0,0,0,0,0,0l-1.3,4.8c0,0,0,0,0,0l-0.8,3l-9,34.2c0,0,0,0,0,0l-0.2,0.9
		C599.3,141.5,598.1,142.9,596.5,143.6z M627.6,144.3c-2.8,0-5.2-1.8-6.1-4.4l-0.2-0.9c0,0,0,0,0,0l-8.9-34.3l-0.7-2.8l1.2-4.6
		c0,0,0,0,0,0l0.2-0.9c0.1-0.4,0.3-0.8,0.5-1.1c0.2,0.4,0.4,0.7,0.5,1.1l0.2,0.9l10.9,42c0,0,0,0,0,0c0.1,0.3,0.2,0.7,0.3,1
		c0,0,0,0,0,0c0,0,0,0,0,0c0,0,0,0,0,0c0,0,0,0,0,0c0.5,1.6,1.5,2.9,2.7,3.8C628,144.3,627.8,144.3,627.6,144.3z"/>
</g>
</svg>
