<svg id="Component_65_1" data-name="Component 65 – 1" xmlns="http://www.w3.org/2000/svg" width="204" height="57" viewBox="0 0 204 57">
  <text id="Alkemio" transform="translate(74 37)" fill="#00818f" font-size="36" font-family="SourceSansPro-Bold, Source Sans Pro" font-weight="700"><tspan x="0" y="0">Alkemio</tspan></text>
  <g id="OMiqPfyR_400x400" transform="translate(0 10.015)">
    <path id="Path_1" data-name="Path 1" d="M18.049,38.732a6.867,6.867,0,0,1,5.277-6.819,7.266,7.266,0,0,0,5.827-6.246,9.356,9.356,0,0,0-.433-3.448A6.977,6.977,0,0,1,31.886,15a7.107,7.107,0,0,1,10.672,7.9c-.891,3-3.067,4.48-5.968,5.27-3.179.866-5.607,4.725-4.737,7.97a7.548,7.548,0,0,1-.643,6.283,7.1,7.1,0,0,1-13.161-3.694Z" transform="translate(-18.049 -13.905)" fill="#09bcd4"/>
    <path id="Path_2" data-name="Path 2" d="M98.587,102.053a6.925,6.925,0,0,1,.681-9.456,7,7,0,0,1,9.753.236,6.718,6.718,0,0,0,9.313.819,12.865,12.865,0,0,1,2.129-1.888,10.508,10.508,0,0,1,3.986-1.015,6.981,6.981,0,1,1-1.74,13.774,2.779,2.779,0,0,1-1.6-.622c-.25-.625-.889-.688-1.385-.957a8.734,8.734,0,0,0-3.9-2.379,7.087,7.087,0,0,0-6.959,2.183,6.79,6.79,0,0,1-8.808.7C99.548,103.01,99.125,102.472,98.587,102.053Z" transform="translate(-78.56 -72.763)" fill="#09bcd4"/>
    <path id="Path_3" data-name="Path 3" d="M142.72,25.388c-2.162-2.187-2.332-7.144.725-9.7a6.809,6.809,0,0,1,7.563-1.118,6.549,6.549,0,0,1,4.134,6.452,6.97,6.97,0,0,1-11.488,5.317A1.493,1.493,0,0,0,142.72,25.388Z" transform="translate(-112.33 -13.899)" fill="#09bcd4"/>
  </g>
  <text id="Preview" transform="translate(72 53)" fill="#212529" font-size="16" font-family="Montserrat-Light, Montserrat" font-weight="300"><tspan x="0" y="0">Preview</tspan></text>
</svg>
