<svg xmlns="http://www.w3.org/2000/svg" viewBox="0 0 1800 400" width="1800" height="400">
	<style>
		tspan { white-space:pre }
		.shp0 { fill: #00bcd4 } 
	</style>
	<g id="Layer 2">
		<g id="&lt;Group&gt;">
			<path id="&lt;Path&gt;" class="shp0" d="M394.66 108.28C393.73 108.28 392.97 109.04 392.97 109.97L392.97 200.92C391.02 197.43 388.32 194.42 385.08 192.11L385.08 109.97C385.08 109.04 384.32 108.28 383.39 108.28C382.46 108.28 381.7 109.04 381.7 109.97L381.7 190.06C379.26 188.82 376.61 187.94 373.81 187.49L373.81 109.97C373.81 109.04 373.06 108.28 372.12 108.28C371.19 108.28 370.43 109.04 370.43 109.97L370.43 187.17C370.15 187.16 369.86 187.15 369.57 187.15L295.4 187.15C288.93 187.15 283.67 181.89 283.67 175.43L283.67 109.97C283.67 109.04 282.92 108.28 281.98 108.28C281.05 108.28 280.29 109.04 280.29 109.97L280.29 175.43C280.29 180.16 282.48 184.38 285.89 187.15L284.13 187.15C277.67 187.15 272.41 181.89 272.41 175.43L272.41 109.97C272.41 109.04 271.65 108.28 270.72 108.28C269.78 108.28 269.03 109.04 269.03 109.97L269.03 175.43C269.03 183.76 275.8 190.53 284.13 190.53L369.57 190.53C381.2 190.53 390.87 199.06 392.67 210.19C388.31 203.13 380.5 198.42 371.61 198.42C370.72 198.42 283.31 198.42 282.01 198.42C276.41 198.29 271.16 196.01 267.24 192.01C263.31 187.99 261.14 182.68 261.14 177.06L261.14 109.97C261.14 109.04 260.38 108.28 259.45 108.28C258.52 108.28 257.76 109.04 257.76 109.97L257.76 290.25C257.76 291.18 258.52 291.94 259.45 291.94C260.38 291.94 261.14 291.18 261.14 290.25L261.14 199.3C263.09 202.79 265.79 205.8 269.03 208.11L269.03 290.25C269.03 291.18 269.78 291.94 270.72 291.94C271.65 291.94 272.41 291.18 272.41 290.25L272.41 210.16C274.84 211.4 277.5 212.28 280.29 212.73L280.29 290.25C280.29 291.18 281.05 291.94 281.98 291.94C282.92 291.94 283.67 291.18 283.67 290.25L283.67 213.05C283.86 213.06 312.62 213.06 369.98 213.07C370.13 213.07 370.28 213.07 370.43 213.08L370.43 290.25C370.43 291.18 371.19 291.94 372.12 291.94C373.06 291.94 373.81 291.18 373.81 290.25L373.81 213.72C378.4 215.31 381.7 219.67 381.7 224.79L381.7 290.25C381.7 291.18 382.46 291.94 383.39 291.94C384.32 291.94 385.08 291.18 385.08 290.25L385.08 224.79C385.08 216.46 378.31 209.69 369.98 209.69L284.54 209.69C272.92 209.69 263.26 201.18 261.45 190.07C262.4 191.61 263.53 193.05 264.82 194.37C269.37 199.02 275.45 201.65 281.95 201.79C282.12 201.8 344.71 201.8 371.61 201.8C383.39 201.8 392.97 211.38 392.97 223.16L392.97 290.25C392.97 291.18 393.73 291.94 394.66 291.94C395.59 291.94 396.35 291.18 396.35 290.25L396.35 223.16L396.35 109.97C396.35 109.04 395.59 108.28 394.66 108.28Z" />
			<path id="&lt;Path&gt;" class="shp0" d="M243.12 262.65C235 270.78 225.54 277.15 215.01 281.61C204.11 286.22 192.53 288.56 180.59 288.56C159.98 288.56 140.6 280.53 126.03 265.95C113.73 253.65 106.09 237.92 104.01 220.92C113.09 254.99 143.93 280.09 180.55 280.67L180.58 280.67C191.45 280.67 202 278.54 211.94 274.34C221.53 270.28 230.14 264.48 237.54 257.08C238.2 256.42 238.2 255.35 237.54 254.69C236.88 254.03 235.81 254.03 235.15 254.69C220.58 269.26 201.2 277.29 180.59 277.29C147.86 276.76 119.95 255.78 109.29 226.45C122.93 252.28 150.06 269.39 180.57 269.39C199.08 269.39 216.48 262.19 229.57 249.1C230.23 248.45 230.23 247.37 229.57 246.71C228.91 246.05 227.84 246.05 227.18 246.71C214.73 259.16 198.17 266.01 180.57 266.01C143.5 266.01 111.63 239.64 104.74 203.3C104.74 203.27 104.73 203.24 104.73 203.21L104.73 203.19C104.71 202.6 104.62 202.06 104.53 201.54C104.46 201.07 104.39 200.63 104.38 200.24C104.44 199.79 104.48 199.34 104.52 198.91C104.57 198.34 104.62 197.79 104.72 197.27C107.95 179.77 117.27 163.79 130.96 152.28C137.77 146.55 145.42 142.09 153.72 139.01C162.3 135.82 171.35 134.2 180.59 134.2C198.19 134.2 214.74 141.05 227.18 153.5C227.84 154.16 228.91 154.16 229.57 153.5C230.23 152.84 230.23 151.77 229.57 151.11C216.49 138.02 199.1 130.82 180.59 130.82C170.94 130.82 161.51 132.51 152.54 135.84C143.88 139.06 135.89 143.72 128.79 149.69C120.21 156.91 113.27 165.8 108.37 175.71C118.43 145.37 146.94 123.47 180.59 122.93C201.2 122.93 220.58 130.96 235.15 145.53C235.81 146.19 236.88 146.19 237.54 145.53C238.2 144.87 238.2 143.8 237.54 143.14C230.14 135.74 221.53 129.94 211.94 125.88C202 121.68 191.45 119.55 180.58 119.55L180.55 119.55C144.21 120.12 113.61 144.58 104.14 177.97C106.45 161.47 114 146.24 125.99 134.26C140.57 119.68 159.95 111.66 180.57 111.66C192.51 111.66 204.09 114 215 118.61C225.53 123.06 234.99 129.44 243.11 137.57C243.77 138.23 244.84 138.23 245.5 137.57C246.16 136.91 246.16 135.84 245.51 135.18C237.07 126.74 227.25 120.12 216.32 115.5C204.99 110.7 192.96 108.28 180.57 108.28C169.69 108.28 159.14 110.41 149.21 114.61C139.61 118.66 131 124.47 123.6 131.87C116.2 139.26 110.39 147.88 106.33 157.47C102.13 167.4 100 177.95 100 188.83C100 192.06 100.73 198.64 100.94 200.42C100.52 203.43 100.05 207.35 100.05 211.38C100.05 222.25 102.18 232.8 106.38 242.74C110.43 252.33 116.24 260.94 123.64 268.34C131.03 275.74 139.64 281.55 149.24 285.6C159.17 289.81 169.72 291.94 180.59 291.94C192.99 291.94 205.01 289.51 216.33 284.72C227.26 280.09 237.08 273.48 245.51 265.04C246.17 264.38 246.17 263.31 245.51 262.65C244.85 261.99 243.78 261.99 243.12 262.65Z" />
			<path id="&lt;Compound Path&gt;" fill-rule="evenodd" class="shp0" d="M691.46 229.2C691.55 230.49 692.17 231.68 693.2 232.49L765.17 288.92C765.9 289.5 766.03 290.56 765.46 291.29C765.12 291.72 764.63 291.94 764.13 291.94C763.76 291.94 763.39 291.82 763.08 291.58L691.11 235.15C690.63 234.77 690.2 234.34 689.82 233.88C689.78 234.24 689.77 234.6 689.77 234.97C689.77 238.28 691.26 241.35 693.86 243.39L751.49 288.92C752.23 289.5 752.35 290.57 751.77 291.3C751.44 291.72 750.94 291.94 750.44 291.94C750.08 291.94 749.71 291.82 749.4 291.58L691.77 246.05C688.35 243.36 686.39 239.32 686.39 234.97C686.39 232.44 687.06 230.06 688.24 228.01C688.28 227.92 688.33 227.83 688.38 227.75C690.59 224.07 694.43 221.48 698.9 220.98C698.93 220.97 698.96 220.97 699 220.96C699.48 220.91 699.97 220.89 700.47 220.89L721.24 220.88C734.32 220.6 746.51 215.24 755.57 205.8C762.22 198.86 766.59 190.33 768.34 181.1C768.21 181.39 768.09 181.68 767.97 181.96C766.24 185.84 764.04 189.5 761.44 192.85C756.64 199 750.43 204.1 743.47 207.58C736.16 211.23 728.29 213.08 720.07 213.08L703.18 213.2L695.29 213.21C683.22 213.21 673.41 223.02 673.41 235.09C673.41 241.17 675.84 246.81 680.26 250.99L683.39 253.46L683.4 253.46L728.28 288.92C729.01 289.5 729.14 290.57 728.56 291.3C728.23 291.72 727.73 291.94 727.23 291.94C726.86 291.94 726.5 291.82 726.18 291.58L681.32 256.13C680.17 255.37 679.08 254.51 678.06 253.56L676.01 251.94L675.97 251.9C675.68 251.68 675.46 251.51 675.25 251.33C668.26 245.65 664.25 237.21 664.25 228.18C664.25 211.72 677.64 198.33 694.11 198.33L711.08 198.33C732.95 198.33 751.4 182.02 754.08 160.37C750.03 152.65 743.99 146.12 736.57 141.49C728.81 136.64 719.84 134.08 710.64 134.08L635.37 134.08C639.66 141.32 642.13 149.5 642.55 158.07C642.65 158.29 642.71 158.53 642.71 158.79L642.71 170.79C643 184.78 637.83 198.04 628.15 208.14C618.47 218.24 605.43 223.97 591.44 224.26L591.4 224.27L577.13 224.27C576.98 224.31 576.82 224.34 576.65 224.34L569.41 224.34C566.14 224.7 563.31 226.55 561.61 229.2C561.69 230.49 562.31 231.68 563.34 232.49L635.31 288.92C636.05 289.5 636.18 290.56 635.6 291.29C635.27 291.72 634.77 291.94 634.27 291.94C633.91 291.94 633.54 291.82 633.23 291.58L561.26 235.15C560.77 234.77 560.34 234.34 559.97 233.88C559.93 234.24 559.91 234.6 559.91 234.97C559.91 238.28 561.4 241.35 564.01 243.39L621.64 288.92C622.37 289.5 622.5 290.57 621.92 291.3C621.58 291.72 621.09 291.94 620.59 291.94C620.22 291.94 619.85 291.82 619.54 291.58L561.91 246.05C558.49 243.36 556.53 239.32 556.53 234.97C556.53 232.44 557.21 230.06 558.38 228.01C558.42 227.92 558.47 227.83 558.53 227.75C560.73 224.07 564.58 221.48 569.04 220.98C569.07 220.97 569.11 220.97 569.14 220.96C569.63 220.91 570.12 220.89 570.61 220.89L591.39 220.88C604.47 220.6 616.66 215.24 625.71 205.8C632.36 198.86 636.73 190.33 638.48 181.1C638.36 181.39 638.24 181.68 638.11 181.96C636.38 185.84 634.19 189.5 631.58 192.85C626.79 199 620.57 204.1 613.61 207.58C606.31 211.23 598.44 213.08 590.22 213.08L573.32 213.2L565.43 213.21C553.37 213.21 543.55 223.02 543.55 235.09C543.55 241.17 545.99 246.81 550.41 250.99L553.54 253.46L598.43 288.92C599.16 289.5 599.28 290.57 598.7 291.3C598.37 291.72 597.88 291.94 597.38 291.94C597.01 291.94 596.64 291.82 596.33 291.58L551.46 256.13C550.32 255.37 549.22 254.51 548.21 253.56L546.15 251.93L546.12 251.91C545.82 251.68 545.6 251.5 545.39 251.33C538.41 245.65 534.39 237.21 534.39 228.18C534.39 211.72 547.79 198.33 564.25 198.33L581.22 198.33C603.09 198.33 621.55 182.02 624.22 160.37C620.17 152.65 614.13 146.12 606.72 141.49C598.95 136.64 589.99 134.08 580.78 134.08L453.16 134.2C446.7 134.2 441.44 139.46 441.44 145.92L441.44 198.77L507.33 198.77C508.26 198.77 509.02 199.53 509.02 200.46C509.02 201.4 508.26 202.15 507.33 202.15L441.44 202.15L441.44 209.61L507.33 209.61C508.26 209.61 509.02 210.36 509.02 211.3C509.02 212.23 508.26 212.99 507.33 212.99L441.44 212.99L441.44 220.57L507.33 220.57C508.26 220.57 509.02 221.33 509.02 222.26C509.02 223.19 508.26 223.95 507.33 223.95L441.44 223.95L441.44 254.3C441.44 260.77 446.7 266.03 453.16 266.03L528.74 266.03C529.68 266.03 530.43 266.78 530.43 267.72C530.43 268.65 529.68 269.41 528.74 269.41L441.89 269.41C433.57 269.41 426.79 262.63 426.79 254.3L426.79 145.92C426.79 137.59 433.57 130.82 441.89 130.82L453.16 130.82L580.78 130.7C590.62 130.7 600.21 133.44 608.51 138.62C614.94 142.64 620.4 147.98 624.54 154.27C624.44 148.04 623.05 142.05 620.4 136.46C620.36 136.43 620.32 136.4 620.28 136.36C611.14 127.7 599.17 122.93 586.57 122.93C489.47 122.93 440.54 122.93 439.77 122.93C434.17 123.06 428.93 125.33 425 129.34C421.07 133.36 418.9 138.66 418.9 144.29L418.9 255.93C418.9 261.56 421.07 266.86 425 270.88C428.93 274.89 434.17 277.16 439.77 277.29C441.03 277.29 527.86 277.29 528.74 277.29C529.68 277.29 530.43 278.05 530.43 278.98C530.43 279.92 529.68 280.67 528.74 280.67C502.03 280.67 439.88 280.67 439.71 280.67C433.22 280.53 427.14 277.89 422.59 273.25C421.29 271.92 420.16 270.48 419.21 268.94C421.02 280.05 430.68 288.56 442.3 288.56L528.74 288.56C529.68 288.56 530.43 289.32 530.43 290.25C530.43 291.18 529.68 291.94 528.74 291.94L442.3 291.94C427.53 291.94 415.52 279.93 415.52 265.16L415.52 135.06C415.52 120.29 427.53 108.28 442.3 108.28L720.07 108.29C734.07 108.29 747.22 113.74 757.12 123.64C766.4 132.91 771.77 145.06 772.4 158.07C772.51 158.29 772.57 158.53 772.57 158.79L772.57 170.79C772.86 184.78 767.69 198.04 758.01 208.14C748.33 218.24 735.29 223.97 721.29 224.26L721.26 224.27L706.98 224.27C706.83 224.31 706.67 224.34 706.51 224.34L699.26 224.34C695.99 224.7 693.16 226.55 691.46 229.2ZM443.65 134.2L441.89 134.2C435.43 134.2 430.17 139.46 430.17 145.92L430.17 254.3C430.17 260.77 435.43 266.03 441.89 266.03L443.65 266.03C440.24 263.25 438.06 259.03 438.06 254.3L438.06 145.92C438.06 141.19 440.24 136.97 443.65 134.2ZM608.78 111.66C613.76 113.54 618.44 116.19 622.67 119.55L716.43 119.55C726.68 119.55 736.54 122.51 744.97 128C741.97 124.24 738.36 120.97 734.25 118.37C727.57 114.13 719.87 111.82 711.93 111.67L608.78 111.66ZM586.57 119.55C596.82 119.55 606.68 122.51 615.12 128C612.12 124.24 608.5 120.97 604.39 118.37C597.71 114.13 590.01 111.82 582.08 111.67L442.3 111.66C430.68 111.66 421.02 120.17 419.21 131.28C420.16 129.74 421.29 128.3 422.59 126.98C427.14 122.33 433.22 119.69 439.71 119.55C439.82 119.55 488.78 119.55 586.57 119.55ZM639.23 160.68C639.23 137.66 623.27 118.29 601.83 113.06C603.33 113.8 604.79 114.62 606.2 115.51C613.47 120.12 619.32 126.62 623.12 134.32C626.31 140.78 627.93 147.73 627.93 154.99C627.93 156.74 627.83 158.48 627.64 160.19C627.64 160.22 627.64 160.25 627.63 160.28C627.62 160.38 627.61 160.49 627.6 160.59C624.8 184.03 604.86 201.71 581.22 201.71L564.25 201.71C549.65 201.71 537.77 213.58 537.77 228.18C537.77 232.5 538.81 236.67 540.74 240.38C540.37 238.65 540.17 236.88 540.17 235.09C540.17 221.16 551.5 209.83 565.43 209.83L573.31 209.82L590.21 209.7C605.44 209.7 619.55 202.8 628.91 190.77C631.35 187.64 633.41 184.22 635.02 180.59C637.81 174.31 639.23 167.61 639.23 160.68ZM754.4 154.27C754.3 148.04 752.91 142.05 750.25 136.46C750.21 136.43 750.17 136.4 750.14 136.36C741 127.7 729.03 122.93 716.43 122.93L626.54 122.93C626.78 123.16 627.03 123.4 627.27 123.64C629.47 125.84 631.45 128.2 633.2 130.7L710.64 130.7C720.48 130.7 730.06 133.44 738.36 138.62C744.79 142.64 750.25 147.98 754.4 154.27ZM769.09 160.68C769.09 137.66 753.13 118.29 731.69 113.06C733.18 113.8 734.64 114.62 736.06 115.51C743.32 120.12 749.17 126.62 752.98 134.32C756.17 140.78 757.79 147.73 757.79 154.99C757.79 156.74 757.69 158.48 757.5 160.19C757.5 160.22 757.49 160.25 757.49 160.28C757.48 160.38 757.47 160.49 757.46 160.59C754.66 184.03 734.72 201.71 711.08 201.71L694.11 201.71C679.51 201.71 667.63 213.58 667.63 228.18C667.63 232.5 668.67 236.67 670.6 240.38C670.22 238.65 670.03 236.88 670.03 235.09C670.03 221.16 681.36 209.83 695.29 209.83L703.16 209.82L720.06 209.7C735.3 209.7 749.4 202.8 758.77 190.77C761.21 187.64 763.26 184.22 764.88 180.59C767.67 174.31 769.09 167.61 769.09 160.68Z" />
			<path id="&lt;Compound Path&gt;" fill-rule="evenodd" class="shp0" d="M1631.63 122.93C1632.88 125.37 1633.76 128.02 1634.21 130.82L1698.31 130.82C1699.24 130.82 1700 131.57 1700 132.51C1700 133.44 1699.24 134.2 1698.31 134.2L1634.53 134.2C1634.54 134.48 1634.54 134.77 1634.54 135.06L1634.54 290.25C1634.54 291.18 1633.79 291.94 1632.85 291.94C1631.92 291.94 1631.16 291.18 1631.16 290.25L1631.16 144.29C1631.16 132.51 1621.58 122.93 1609.8 122.93L1457.38 122.78C1444.75 122.78 1432.76 126.78 1423.62 134.04C1423.44 134.18 1423.25 134.27 1423.04 134.33C1420.67 139.06 1419.47 144.1 1419.47 149.34C1419.47 149.93 1419.49 150.52 1419.52 151.11C1423.74 145.44 1429.37 140.68 1436 137.22C1444.02 133.03 1453.41 130.82 1463.16 130.82L1608.17 130.82C1616.5 130.82 1623.28 137.59 1623.28 145.92L1623.28 290.25C1623.28 291.18 1622.52 291.94 1621.58 291.94C1620.65 291.94 1619.89 291.18 1619.89 290.25L1619.89 145.92C1619.89 139.46 1614.63 134.2 1608.17 134.2L1606.41 134.2C1609.82 136.97 1612.01 141.19 1612.01 145.92L1612.01 290.25C1612.01 291.18 1611.25 291.94 1610.32 291.94C1609.38 291.94 1608.63 291.18 1608.63 290.25L1608.63 145.92C1608.63 139.46 1603.37 134.2 1596.9 134.2L1463.16 134.2C1444.78 134.2 1428.77 142.32 1420.31 155.93C1420.27 156 1420.22 156.06 1420.17 156.12C1423.87 173.89 1441.71 187.01 1462.72 187.01L1494.03 187.01C1501.47 187.15 1508.63 188.7 1515.3 191.61C1521.76 194.42 1527.44 198.36 1532.18 203.3C1540.86 212.36 1545.49 224.01 1545.22 236.09L1545.22 247.07C1545.22 247.35 1545.15 247.61 1545.03 247.85C1544.29 259.36 1538.92 270.08 1529.73 278.28C1519.86 287.08 1506.75 291.93 1492.82 291.93L1484.73 291.93C1484.43 291.94 1484.14 291.94 1483.84 291.94L1367.97 291.94C1353.2 291.94 1341.19 279.93 1341.19 265.16L1341.19 109.97C1341.19 109.04 1341.95 108.28 1342.88 108.28C1343.81 108.28 1344.57 109.04 1344.57 109.97L1344.57 255.93C1344.57 267.71 1354.15 277.29 1365.93 277.29L1489.18 277.29C1501.82 277.29 1513.82 273.51 1522.97 266.64C1523.02 266.6 1523.08 266.56 1523.14 266.53C1525.76 261.56 1527.09 256.25 1527.09 250.72C1527.09 250.7 1527.09 250.68 1527.09 250.66C1522.9 255.83 1517.33 260.18 1510.76 263.37C1502.64 267.32 1493.18 269.41 1483.4 269.41L1367.56 269.41C1359.23 269.41 1352.46 262.63 1352.46 254.3L1352.46 109.97C1352.46 109.04 1353.21 108.28 1354.15 108.28C1355.08 108.28 1355.84 109.04 1355.84 109.97L1355.84 254.3C1355.84 259.42 1359.14 263.78 1363.72 265.38L1363.72 109.97C1363.72 109.04 1364.48 108.28 1365.41 108.28C1366.35 108.28 1367.1 109.04 1367.1 109.97L1367.1 266.01C1367.21 266.02 1405.97 266.02 1483.4 266.03C1492.67 266.03 1501.62 264.06 1509.28 260.34C1516.66 256.74 1522.67 251.62 1526.67 245.5C1523.74 226.86 1505.47 212.88 1483.84 212.88L1452.52 212.88C1437.72 212.6 1423.69 206.65 1414.01 196.55C1405.57 187.74 1401.07 176.48 1401.34 164.83L1401.34 154.09C1401.34 153.86 1401.38 153.65 1401.47 153.45C1401.87 141.51 1407.29 130.34 1416.83 121.87C1426.7 113.11 1439.81 108.29 1453.74 108.29L1462.19 108.29C1462.31 108.29 1541.01 108.28 1698.31 108.28C1699.24 108.28 1700 109.04 1700 109.97C1700 110.9 1699.24 111.66 1698.31 111.66L1620.77 111.66C1624.26 113.61 1627.27 116.31 1629.58 119.55L1698.31 119.55C1699.24 119.55 1700 120.3 1700 121.24C1700 122.17 1699.24 122.93 1698.31 122.93L1631.63 122.93ZM1367.97 288.56L1484.36 288.55C1492.43 288.47 1500.26 286.44 1507.05 282.65C1511.38 280.24 1515.16 277.18 1518.24 273.64C1509.7 278.21 1499.64 280.67 1489.18 280.67L1365.93 280.67C1357.04 280.67 1349.23 275.96 1344.87 268.9C1346.67 280.03 1356.34 288.56 1367.97 288.56ZM1541.74 245.09C1541.74 238.98 1540.33 233.06 1537.57 227.51C1535.96 224.3 1533.92 221.27 1531.5 218.49C1522.15 207.78 1508.05 201.64 1492.82 201.64L1470.62 201.64L1453.73 201.53C1437.53 201.53 1422.5 194.99 1412.51 183.6C1409.9 180.62 1407.7 177.37 1405.97 173.91C1405.73 173.44 1405.5 172.96 1405.28 172.47C1406.66 180.46 1410.49 187.99 1416.45 194.22C1425.51 203.66 1438.67 209.23 1452.57 209.5L1483.84 209.5C1507.42 209.5 1527.33 225.09 1530.13 245.76C1530.35 247.38 1530.47 249.05 1530.47 250.72C1530.47 257.16 1528.84 263.32 1525.62 269.05C1521.81 275.83 1515.95 281.56 1508.69 285.61C1507.88 286.06 1507.04 286.49 1506.2 286.9C1526.69 281.71 1541.74 264.94 1541.74 245.09ZM1420.94 131.08C1424.75 124.32 1430.61 118.62 1437.87 114.59C1438.67 114.14 1439.49 113.72 1440.32 113.32C1419.85 118.49 1404.82 135.18 1404.82 154.91C1404.82 160.99 1406.22 166.88 1408.99 172.4C1410.59 175.59 1412.63 178.61 1415.05 181.37C1424.4 192.03 1438.5 198.14 1453.74 198.14L1470.63 198.26L1492.82 198.26C1509.03 198.26 1524.05 204.82 1534.05 216.27C1536.66 219.26 1538.86 222.53 1540.59 226C1540.74 226.3 1540.88 226.6 1541.03 226.9C1539.44 219.07 1535.57 211.73 1529.74 205.64C1525.31 201.02 1520 197.34 1513.95 194.71C1507.69 191.98 1500.97 190.53 1493.98 190.39L1462.72 190.39C1439.13 190.39 1419.23 174.87 1416.43 154.28C1416.2 152.66 1416.09 151 1416.09 149.34C1416.09 142.92 1417.72 136.78 1420.94 131.08ZM1630.86 131.32C1629.07 120.19 1619.39 111.66 1607.76 111.66L1470.78 111.66C1470.72 111.67 1470.67 111.67 1470.62 111.67L1462.19 111.67C1454.12 111.75 1446.29 113.78 1439.51 117.54C1434.92 120.09 1430.95 123.35 1427.78 127.14C1436.43 122.12 1446.7 119.4 1457.38 119.4L1609.8 119.55C1618.69 119.55 1626.5 124.26 1630.86 131.32Z" />
			<path id="&lt;Compound Path&gt;" fill-rule="evenodd" class="shp0" d="M1326.64 110.44L1282.45 278.81C1282.32 279.49 1282.14 280.17 1281.91 280.84C1281.91 280.85 1281.91 280.86 1281.91 280.86C1280.28 285.68 1276.57 289.35 1271.98 291.01C1271.94 291.03 1271.9 291.04 1271.86 291.05C1271.68 291.12 1271.5 291.18 1271.31 291.24C1271.22 291.26 1271.13 291.29 1271.04 291.32C1270.91 291.36 1270.77 291.39 1270.64 291.43C1270.53 291.46 1270.42 291.49 1270.31 291.52C1270.19 291.55 1270.06 291.57 1269.93 291.6C1269.73 291.65 1269.52 291.69 1269.32 291.73C1269.2 291.75 1269.08 291.77 1268.96 291.79C1268.84 291.81 1268.72 291.82 1268.6 291.84C1268.47 291.85 1268.34 291.87 1268.22 291.88C1268.1 291.9 1267.99 291.91 1267.88 291.92C1267.73 291.93 1267.58 291.94 1267.43 291.95C1267.34 291.96 1267.25 291.96 1267.16 291.97C1266.91 291.98 1266.67 291.99 1266.42 291.99C1266.17 291.99 1265.92 291.98 1265.68 291.97C1265.59 291.96 1265.5 291.96 1265.41 291.95C1265.26 291.94 1265.1 291.93 1264.95 291.92C1264.84 291.91 1264.73 291.9 1264.62 291.88C1264.49 291.87 1264.37 291.85 1264.24 291.84C1264.12 291.82 1264 291.81 1263.88 291.79C1263.76 291.77 1263.64 291.75 1263.52 291.73C1263.31 291.69 1263.11 291.65 1262.9 291.6C1262.78 291.57 1262.65 291.55 1262.52 291.52C1262.41 291.49 1262.3 291.46 1262.2 291.43C1262.06 291.39 1261.93 291.36 1261.79 291.32C1261.7 291.29 1261.61 291.26 1261.52 291.24C1261.34 291.18 1261.16 291.12 1260.98 291.05C1260.94 291.04 1260.89 291.03 1260.85 291.01C1260.83 291 1260.8 290.99 1260.78 290.99C1258.98 291.65 1257.09 291.99 1255.15 291.99C1248.12 291.99 1241.9 287.51 1239.66 280.85C1239.66 280.84 1239.65 280.84 1239.65 280.83C1239.43 280.16 1239.25 279.47 1239.12 278.79L1221.39 210.55L1203.48 278.71C1203.34 279.4 1203.16 280.08 1202.94 280.75C1202.94 280.76 1202.94 280.76 1202.94 280.76L1202.93 280.77C1201.31 285.59 1197.6 289.26 1193.01 290.92C1192.97 290.94 1192.92 290.95 1192.88 290.97C1192.7 291.03 1192.53 291.09 1192.35 291.14C1192.25 291.17 1192.16 291.2 1192.06 291.23C1191.93 291.27 1191.81 291.3 1191.68 291.34C1191.56 291.37 1191.45 291.4 1191.34 291.43C1191.22 291.46 1191.1 291.48 1190.99 291.51C1190.77 291.56 1190.55 291.6 1190.33 291.64C1190.21 291.66 1190.1 291.68 1189.99 291.7C1189.86 291.72 1189.74 291.73 1189.62 291.75C1189.5 291.77 1189.37 291.78 1189.25 291.8C1189.13 291.81 1189.02 291.82 1188.91 291.83C1188.76 291.84 1188.61 291.85 1188.46 291.86C1188.37 291.87 1188.28 291.87 1188.18 291.88C1187.94 291.89 1187.69 291.9 1187.45 291.9C1187.2 291.9 1186.95 291.89 1186.71 291.88C1186.62 291.87 1186.53 291.87 1186.43 291.86C1186.28 291.85 1186.13 291.84 1185.98 291.83C1185.87 291.82 1185.76 291.81 1185.65 291.8C1185.52 291.78 1185.39 291.77 1185.27 291.75C1185.15 291.73 1185.03 291.72 1184.91 291.7C1184.79 291.68 1184.67 291.66 1184.55 291.64C1184.34 291.6 1184.13 291.56 1183.92 291.51C1183.8 291.48 1183.67 291.46 1183.55 291.43C1183.44 291.4 1183.33 291.37 1183.22 291.34C1183.09 291.31 1182.95 291.27 1182.82 291.23C1182.73 291.2 1182.64 291.17 1182.55 291.15C1182.37 291.09 1182.19 291.03 1182.01 290.97C1181.97 290.95 1181.92 290.94 1181.88 290.92C1181.86 290.91 1181.83 290.91 1181.81 290.9C1180.01 291.56 1178.12 291.9 1176.18 291.9C1169.15 291.9 1162.92 287.42 1160.69 280.76C1160.68 280.76 1160.68 280.75 1160.68 280.74C1160.46 280.08 1160.28 279.4 1160.15 278.72L1122.21 134.2L1045.24 134.2C1045.25 134.48 1045.25 134.77 1045.25 135.06L1045.25 290.25C1045.25 291.18 1044.5 291.94 1043.56 291.94C1042.63 291.94 1041.87 291.18 1041.87 290.25L1041.87 144.29C1041.87 132.51 1032.29 122.93 1020.51 122.93C988.9 122.93 964.32 122.93 946.77 122.93C946.73 122.93 946.69 122.92 946.65 122.92L940.56 130.82L1018.88 130.82C1027.21 130.82 1033.98 137.59 1033.98 145.92L1033.98 290.25C1033.98 291.18 1033.23 291.94 1032.29 291.94C1031.36 291.94 1030.6 291.18 1030.6 290.25L1030.6 145.92C1030.6 139.46 1025.34 134.2 1018.88 134.2L1017.12 134.2C1020.53 136.97 1022.72 141.19 1022.72 145.92L1022.72 290.25C1022.72 291.18 1021.96 291.94 1021.03 291.94C1020.09 291.94 1019.34 291.18 1019.34 290.25L1019.34 145.92C1019.34 139.46 1014.08 134.2 1007.61 134.2L937.95 134.2L880.07 209.26L880.07 209.27L880.01 209.34L816.83 291.28C816.49 291.71 815.99 291.94 815.49 291.94C815.13 291.94 814.76 291.83 814.46 291.59C813.72 291.02 813.58 289.96 814.15 289.22L868.75 218.4C866.94 219.49 865.07 220.47 863.15 221.33C859.62 222.89 855.95 224.06 852.19 224.81C830.56 252.14 812.63 274.51 798.88 291.32C798.55 291.73 798.06 291.94 797.57 291.94C797.2 291.94 796.82 291.82 796.5 291.56C795.78 290.97 795.67 289.9 796.27 289.18C809.52 272.97 826.68 251.58 847.29 225.55C846.97 225.58 846.65 225.61 846.32 225.64C844.86 225.76 843.36 225.83 841.86 225.83C840.18 225.83 838.48 225.74 836.8 225.58L785.74 291.29C785.41 291.72 784.91 291.94 784.41 291.94C784.05 291.94 783.68 291.82 783.37 291.59C782.63 291.01 782.5 289.95 783.07 289.21L832.92 225.06C821.36 223.07 810.78 217.24 802.87 208.43C794.23 198.81 789.47 186.38 789.47 173.43L789.46 109.86C789.46 108.93 790.22 108.17 791.15 108.17C792.08 108.17 792.84 108.93 792.84 109.86L792.85 165.32C793.02 173.37 795.51 181.19 800.05 187.93C802.76 191.95 806.13 195.5 810.01 198.44C803.98 189.66 800.73 179.74 800.73 169.79L800.73 109.7C800.73 108.77 801.49 108.01 802.42 108.01C803.35 108.01 804.11 108.77 804.11 109.7L804.11 169.79C804.11 181.76 809.19 193.72 818.42 203.45C818.43 203.47 818.45 203.49 818.46 203.51C823.79 205.97 829.45 207.37 835.35 207.7C829.11 203.56 823.8 198.12 819.8 191.73C814.62 183.42 811.88 173.84 811.88 164L811.88 110.29C811.88 109.35 812.63 108.6 813.57 108.6C814.5 108.6 815.26 109.35 815.26 110.29L815.26 164C815.26 173.2 817.82 182.17 822.67 189.93C827.37 197.45 834.01 203.56 841.88 207.61C842.28 207.58 842.68 207.54 843.08 207.5L843.11 207.49C843.22 207.48 843.33 207.47 843.44 207.46C844.66 207.32 845.86 207.13 847.06 206.9C847.09 206.83 847.14 206.77 847.18 206.71L923.24 108.82C923.82 108.08 924.88 107.95 925.62 108.52C926.35 109.1 926.49 110.16 925.91 110.89L852.37 205.54C858.18 203.68 863.54 200.69 868.18 196.69C875.75 190.03 937.94 109.75 938.56 108.94C939.14 108.2 940.2 108.06 940.94 108.63C941.67 109.21 941.81 110.27 941.24 111.01C938.67 114.32 878.22 192.36 870.4 199.24C862.92 205.68 853.73 209.68 843.82 210.82C843.69 210.83 843.56 210.85 843.44 210.86C841.66 211.05 839.84 211.15 838.01 211.15C830.47 211.15 823.25 209.53 816.54 206.35C808.69 202.62 802.02 196.9 797.25 189.82C796.06 188.05 795 186.22 794.07 184.33C795.91 192.4 799.77 199.92 805.39 206.17C813.41 215.1 824.36 220.77 836.23 222.13C839.48 222.5 842.83 222.55 846.04 222.27C849.93 221.94 853.74 221.16 857.41 219.93C857.41 219.93 857.42 219.93 857.43 219.92C865 217.39 871.92 212.97 877.44 207.13L877.48 207.09L953.06 109.07C953.25 108.83 953.49 108.65 953.75 108.54C954.01 108.38 954.32 108.28 954.65 108.28L1116.91 108.28C1116.98 108.28 1117.06 108.29 1117.14 108.3C1117.14 108.3 1117.15 108.29 1117.16 108.29C1118.06 108.05 1118.98 108.59 1119.22 109.5L1163.43 277.91L1163.91 279.73C1165.69 284.99 1170.62 288.52 1176.18 288.52C1176.59 288.52 1177 288.5 1177.41 288.46C1174.93 286.53 1173 283.89 1171.95 280.76C1171.95 280.76 1171.95 280.75 1171.95 280.74C1171.73 280.08 1171.55 279.4 1171.42 278.72L1127.22 110.36C1126.98 109.45 1127.52 108.53 1128.43 108.29C1129.33 108.05 1130.25 108.59 1130.49 109.5L1174.7 277.91L1175.17 279.73C1176.39 283.32 1179.08 286.11 1182.44 287.51C1182.44 287.52 1182.45 287.52 1182.46 287.52C1182.65 287.6 1182.84 287.67 1183.02 287.74C1183.07 287.76 1183.12 287.77 1183.17 287.79C1183.29 287.84 1183.42 287.88 1183.54 287.92C1183.63 287.94 1183.71 287.97 1183.8 287.99C1183.89 288.02 1183.98 288.04 1184.06 288.07C1184.17 288.1 1184.27 288.12 1184.37 288.15C1184.43 288.16 1184.5 288.18 1184.56 288.19C1184.77 288.24 1184.99 288.28 1185.21 288.32C1185.28 288.33 1185.35 288.35 1185.42 288.36C1185.53 288.37 1185.63 288.39 1185.73 288.4C1185.83 288.41 1185.92 288.43 1186.01 288.44C1186.1 288.45 1186.2 288.45 1186.29 288.46C1186.41 288.47 1186.52 288.48 1186.64 288.49C1186.71 288.49 1186.79 288.5 1186.86 288.5C1187.05 288.51 1187.25 288.52 1187.45 288.52C1187.64 288.52 1187.83 288.51 1188.02 288.5C1188.09 288.5 1188.17 288.49 1188.24 288.49C1188.35 288.48 1188.46 288.48 1188.57 288.47C1188.61 288.46 1188.65 288.46 1188.68 288.46C1188.22 288.09 1187.78 287.71 1187.35 287.3C1186.93 286.89 1186.54 286.47 1186.17 286.02C1186.15 286 1186.13 285.98 1186.11 285.95C1184.84 284.41 1183.85 282.65 1183.22 280.76C1183.22 280.75 1183.22 280.75 1183.21 280.74L1183.21 280.73C1182.99 280.07 1182.82 279.39 1182.68 278.72L1182.68 278.71L1180.17 269.15L1178.62 263.23L1138.49 110.36C1138.25 109.45 1138.79 108.53 1139.69 108.29C1140.6 108.05 1141.52 108.59 1141.76 109.5L1181.81 262.09L1199.73 193.94C1199.86 193.26 1200.04 192.57 1200.26 191.9L1200.27 191.89C1200.27 191.89 1200.27 191.89 1200.27 191.88L1200.27 191.87C1202.51 185.21 1208.73 180.75 1215.76 180.75C1217.7 180.75 1219.59 181.08 1221.39 181.74C1221.42 181.74 1221.44 181.73 1221.47 181.72C1221.51 181.7 1221.55 181.69 1221.59 181.68C1221.77 181.61 1221.95 181.55 1222.13 181.5C1222.22 181.47 1222.31 181.44 1222.41 181.41C1222.54 181.37 1222.67 181.34 1222.8 181.3C1222.92 181.27 1223.03 181.24 1223.14 181.21C1223.26 181.18 1223.38 181.16 1223.5 181.13C1223.71 181.08 1223.93 181.04 1224.14 181C1224.25 180.98 1224.37 180.96 1224.49 180.94C1224.61 180.92 1224.73 180.91 1224.85 180.89C1224.98 180.88 1225.1 180.86 1225.23 180.85C1225.34 180.83 1225.45 180.82 1225.57 180.81C1225.72 180.8 1225.87 180.79 1226.02 180.78C1226.11 180.77 1226.2 180.77 1226.29 180.76C1226.54 180.75 1226.78 180.75 1227.03 180.75C1227.28 180.75 1227.52 180.75 1227.77 180.76C1227.86 180.77 1227.95 180.77 1228.04 180.78C1228.19 180.79 1228.34 180.8 1228.49 180.81C1228.6 180.82 1228.72 180.83 1228.83 180.85C1228.95 180.86 1229.08 180.88 1229.21 180.89C1229.33 180.91 1229.45 180.92 1229.57 180.94C1229.69 180.96 1229.81 180.98 1229.92 181.01C1230.13 181.04 1230.34 181.08 1230.55 181.13C1230.67 181.16 1230.8 181.18 1230.92 181.21C1231.03 181.24 1231.14 181.27 1231.25 181.3C1231.39 181.34 1231.52 181.37 1231.65 181.41C1231.74 181.44 1231.84 181.47 1231.93 181.5C1232.11 181.55 1232.29 181.61 1232.47 181.68C1232.51 181.69 1232.55 181.7 1232.59 181.72C1237.19 183.38 1240.9 187.06 1242.52 191.88C1242.52 191.89 1242.52 191.89 1242.53 191.9L1242.53 191.91C1242.75 192.58 1242.93 193.26 1243.06 193.94L1256.13 244.47L1260.78 262.18L1300.84 109.59C1301.08 108.68 1302 108.14 1302.9 108.38C1303.81 108.62 1304.35 109.54 1304.11 110.44L1263.98 263.32L1262.53 268.83L1264.94 277.99C1264.94 277.99 1264.94 277.99 1264.94 278C1264.94 278.01 1264.94 278.02 1264.95 278.03L1265.41 279.82C1265.68 280.59 1266.02 281.34 1266.42 282.05C1266.82 281.34 1267.16 280.6 1267.42 279.83L1267.9 278L1312.11 109.59C1312.34 108.68 1313.27 108.14 1314.17 108.38C1315.07 108.62 1315.61 109.54 1315.38 110.44L1271.17 278.86L1270.67 280.74C1270.66 280.78 1270.65 280.82 1270.64 280.85C1270.16 282.3 1269.48 283.65 1268.62 284.9C1268.64 284.92 1268.65 284.94 1268.67 284.96C1269.68 285.93 1270.81 286.72 1272.05 287.32C1275.11 285.84 1277.55 283.19 1278.69 279.82L1279.16 278L1323.37 109.59C1323.61 108.68 1324.54 108.14 1325.44 108.38C1326.34 108.62 1326.88 109.54 1326.64 110.44ZM1031.48 111.66C1034.97 113.61 1037.98 116.31 1040.29 119.55L1118.37 119.55L1116.29 111.66L1031.48 111.66ZM1041.57 131.32C1039.78 120.19 1030.1 111.66 1018.47 111.66L955.33 111.66L949.25 119.55C967.06 119.55 990.81 119.55 1020.51 119.55C1029.4 119.55 1037.21 124.26 1041.57 131.32ZM1121.32 130.82L1119.25 122.93L1042.34 122.93C1043.59 125.37 1044.47 128.02 1044.91 130.82L1121.32 130.82ZM1232.66 185.41C1231.42 186.01 1230.29 186.8 1229.29 187.77C1229.27 187.79 1229.25 187.81 1229.23 187.83C1230.09 189.08 1230.77 190.44 1231.25 191.88C1231.26 191.91 1231.27 191.95 1231.28 191.99L1231.78 193.87L1253.67 277.99C1253.67 278.01 1253.68 278.02 1253.68 278.04L1254.14 279.81C1255.36 283.41 1258.05 286.2 1261.41 287.6C1261.42 287.6 1261.42 287.61 1261.43 287.61C1261.43 287.61 1261.43 287.61 1261.44 287.61C1261.62 287.69 1261.81 287.76 1262 287.83C1262.04 287.85 1262.09 287.86 1262.14 287.88C1262.26 287.92 1262.39 287.97 1262.52 288.01C1262.6 288.03 1262.69 288.06 1262.77 288.08C1262.86 288.11 1262.95 288.13 1263.04 288.16C1263.14 288.19 1263.24 288.21 1263.34 288.24C1263.41 288.25 1263.48 288.27 1263.54 288.28C1263.75 288.33 1263.96 288.37 1264.18 288.41C1264.25 288.42 1264.32 288.44 1264.4 288.45C1264.5 288.46 1264.6 288.48 1264.7 288.49C1264.8 288.5 1264.89 288.51 1264.98 288.52C1265.08 288.53 1265.17 288.54 1265.26 288.55C1265.38 288.56 1265.49 288.57 1265.61 288.58C1265.69 288.58 1265.76 288.59 1265.83 288.59C1266.03 288.6 1266.22 288.61 1266.42 288.61C1266.61 288.61 1266.8 288.6 1266.99 288.59C1267.06 288.59 1267.14 288.58 1267.22 288.58C1267.33 288.57 1267.44 288.56 1267.55 288.55C1267.58 288.55 1267.62 288.55 1267.66 288.54C1267.19 288.18 1266.75 287.8 1266.32 287.38C1265.91 286.98 1265.52 286.56 1265.15 286.12C1265.13 286.09 1265.1 286.06 1265.08 286.04C1263.81 284.5 1262.83 282.74 1262.19 280.85C1262.19 280.84 1262.19 280.83 1262.19 280.83L1262.19 280.82C1261.97 280.16 1261.79 279.48 1261.66 278.81C1261.66 278.81 1261.66 278.8 1261.65 278.8L1259.15 269.25C1259.14 269.24 1259.14 269.24 1259.14 269.23L1257.59 263.32C1257.59 263.31 1257.59 263.31 1257.58 263.3L1252.86 245.32L1239.78 194.74C1239.77 194.72 1239.77 194.71 1239.77 194.7L1239.3 192.92C1238.16 189.55 1235.73 186.89 1232.66 185.41ZM1185.01 263.23L1183.56 268.75L1185.96 277.9C1185.97 277.91 1185.97 277.93 1185.97 277.94L1186.34 279.36L1186.44 279.73C1186.7 280.5 1187.04 281.25 1187.45 281.96C1187.85 281.25 1188.18 280.51 1188.45 279.74L1188.93 277.91L1211 193.94C1211 193.93 1211 193.93 1211 193.93C1211.13 193.25 1211.31 192.57 1211.53 191.9C1211.53 191.89 1211.53 191.89 1211.53 191.89C1211.53 191.89 1211.53 191.89 1211.54 191.89L1211.54 191.87C1212.59 188.75 1214.52 186.11 1216.99 184.18C1216.58 184.15 1216.17 184.13 1215.76 184.13C1210.19 184.13 1205.27 187.66 1203.49 192.93L1203.02 194.69C1203.02 194.71 1203.02 194.73 1203.01 194.74L1185.01 263.23ZM1199.72 279.71L1200.18 277.95C1200.19 277.93 1200.19 277.92 1200.2 277.9L1218.2 209.41L1219.75 203.5C1219.75 203.49 1219.75 203.49 1219.76 203.49L1222.26 193.94C1222.26 193.93 1222.27 193.92 1222.27 193.92C1222.4 193.24 1222.58 192.56 1222.8 191.9C1222.8 191.89 1222.8 191.88 1222.8 191.88C1222.81 191.88 1222.81 191.87 1222.81 191.87C1223.45 189.97 1224.44 188.19 1225.73 186.65C1225.74 186.64 1225.75 186.62 1225.76 186.61C1226.13 186.17 1226.52 185.74 1226.94 185.34C1227.36 184.93 1227.8 184.55 1228.27 184.19C1228.23 184.18 1228.19 184.18 1228.15 184.18C1228.05 184.17 1227.94 184.16 1227.83 184.15C1227.75 184.15 1227.68 184.14 1227.6 184.14C1227.41 184.13 1227.22 184.13 1227.03 184.13C1226.83 184.13 1226.64 184.13 1226.44 184.14C1226.37 184.14 1226.3 184.15 1226.22 184.15C1226.1 184.16 1225.99 184.17 1225.87 184.18C1225.78 184.19 1225.69 184.2 1225.59 184.21C1225.5 184.22 1225.41 184.23 1225.32 184.24C1225.21 184.25 1225.11 184.27 1225 184.28C1224.94 184.29 1224.87 184.31 1224.8 184.32C1224.57 184.36 1224.35 184.4 1224.13 184.45C1224.07 184.47 1224.01 184.48 1223.96 184.49C1223.85 184.52 1223.75 184.55 1223.64 184.57C1223.56 184.6 1223.47 184.62 1223.39 184.65C1223.3 184.67 1223.21 184.7 1223.12 184.73C1223 184.77 1222.88 184.81 1222.76 184.85C1222.71 184.87 1222.66 184.88 1222.61 184.9C1222.42 184.97 1222.23 185.04 1222.05 185.12L1222.04 185.12C1222.03 185.12 1222.03 185.13 1222.02 185.13C1218.66 186.54 1215.97 189.33 1214.75 192.93L1214.29 194.69C1214.29 194.71 1214.28 194.73 1214.28 194.74L1192.19 278.77L1191.7 280.65C1191.69 280.69 1191.68 280.73 1191.67 280.76C1191.18 282.21 1190.51 283.56 1189.65 284.81C1189.67 284.83 1189.68 284.85 1189.7 284.87C1190.7 285.84 1191.84 286.63 1193.08 287.23C1196.15 285.75 1198.58 283.09 1199.72 279.71ZM1256.38 288.55C1253.9 286.62 1251.98 283.98 1250.93 280.85C1250.92 280.84 1250.92 280.84 1250.92 280.83L1250.92 280.82C1250.7 280.16 1250.52 279.48 1250.39 278.8C1250.39 278.8 1250.39 278.79 1250.38 278.79L1228.51 194.73L1228.03 192.9C1227.77 192.13 1227.43 191.39 1227.03 190.68C1226.63 191.4 1226.29 192.14 1226.02 192.91L1225.56 194.69C1225.55 194.71 1225.55 194.73 1225.55 194.74L1223.14 203.9L1224.59 209.41L1242.4 277.99C1242.41 278.01 1242.41 278.02 1242.41 278.04L1242.88 279.81C1244.66 285.07 1249.59 288.61 1255.15 288.61C1255.56 288.61 1255.97 288.58 1256.38 288.55Z" />
		</g>
	</g>
</svg>