<svg width="679" height="570" viewBox="0 0 679 570" fill="none" xmlns="http://www.w3.org/2000/svg">
  <g clip-path="url(#clip0_1_1019)">
    <g clip-path="url(#clip1_1_1019)">
      <path d="M577.495 340.901H35.1545C30.7799 340.896 26.586 339.156 23.4927 336.063C20.3994 332.97 18.6594 328.776 18.6545 324.401V18.6016H593.995V324.401C593.99 328.776 592.25 332.97 589.156 336.063C586.063 339.156 581.869 340.896 577.495 340.901Z" fill="#E6E6E6"/>
      <path d="M555.912 309.318H56.7371C54.4835 309.315 52.323 308.419 50.7295 306.826C49.136 305.232 48.2396 303.071 48.2371 300.818V58.6841C48.2396 56.4305 49.136 54.27 50.7295 52.6765C52.323 51.083 54.4835 50.1866 56.7371 50.1841H555.912C558.165 50.1866 560.326 51.0829 561.919 52.6765C563.513 54.27 564.409 56.4305 564.412 58.6841V300.818C564.409 303.071 563.513 305.232 561.919 306.826C560.326 308.419 558.165 309.315 555.912 309.318Z" fill="white"/>
      <path d="M595.463 30H17.4629V16.64C17.4678 12.2283 19.2089 7.99878 22.304 4.87925C25.3992 1.75972 29.5957 0.00498343 33.9729 0H578.953C583.33 0.00498343 587.527 1.75972 590.622 4.87925C593.717 7.99878 595.458 12.2283 595.463 16.64V30Z" fill="#1D384A"/>
      <path d="M174.811 216.609H85.9658C83.7123 216.606 81.5517 215.71 79.9582 214.116C78.3647 212.523 77.4684 210.362 77.4658 208.109V149.702C77.4684 147.449 78.3647 145.288 79.9582 143.695C81.5517 142.101 83.7123 141.205 85.9658 141.202H174.811C177.065 141.205 179.225 142.101 180.819 143.695C182.412 145.288 183.309 147.449 183.311 149.702V208.109C183.309 210.362 182.412 212.523 180.819 214.117C179.225 215.71 177.065 216.606 174.811 216.609Z" fill="#E6E6E6"/>
      <path d="M530.455 150.658H249.74C248.487 150.658 247.284 150.16 246.397 149.273C245.511 148.386 245.013 147.184 245.013 145.93C245.013 144.676 245.511 143.474 246.397 142.587C247.284 141.7 248.487 141.202 249.74 141.202H530.455C531.709 141.202 532.912 141.7 533.798 142.587C534.685 143.474 535.183 144.676 535.183 145.93C535.183 147.184 534.685 148.386 533.798 149.273C532.912 150.16 531.709 150.658 530.455 150.658Z" fill="#E6E6E6"/>
      <path d="M530.455 184.479H249.74C248.487 184.479 247.284 183.98 246.398 183.094C245.511 182.207 245.013 181.005 245.013 179.751C245.013 178.497 245.511 177.295 246.398 176.408C247.284 175.522 248.487 175.023 249.74 175.023H530.455C531.709 175.023 532.912 175.522 533.798 176.408C534.685 177.295 535.183 178.497 535.183 179.751C535.183 181.005 534.685 182.207 533.798 183.094C532.912 183.98 531.709 184.479 530.455 184.479Z" fill="#E6E6E6"/>
      <path d="M530.455 218.3H249.74C248.487 218.3 247.284 217.802 246.397 216.915C245.511 216.028 245.013 214.826 245.013 213.572C245.013 212.318 245.511 211.116 246.397 210.229C247.284 209.342 248.487 208.844 249.74 208.844H530.455C531.709 208.844 532.912 209.342 533.798 210.229C534.685 211.116 535.183 212.318 535.183 213.572C535.183 214.826 534.685 216.028 533.798 216.915C532.912 217.802 531.709 218.3 530.455 218.3Z" fill="#E6E6E6"/>
      <path d="M437.048 556.311H424.788L418.956 509.023H437.05L437.048 556.311Z" fill="#A0616A"/>
      <path d="M416.031 552.808H439.675V567.695H401.144C401.144 565.74 401.529 563.804 402.277 561.998C403.026 560.191 404.122 558.55 405.504 557.168C406.887 555.786 408.528 554.689 410.334 553.941C412.14 553.193 414.076 552.808 416.031 552.808Z" fill="#1D384A"/>
      <path d="M488.048 556.311H475.788L469.956 509.023H488.05L488.048 556.311Z" fill="#A0616A"/>
      <path d="M467.031 552.808H490.675V567.695H452.144C452.144 565.74 452.529 563.804 453.277 561.998C454.026 560.191 455.122 558.55 456.504 557.168C457.887 555.786 459.528 554.689 461.334 553.941C463.14 553.193 465.076 552.808 467.031 552.808Z" fill="#1D384A"/>
      <path d="M486.487 545.443H474.007C472.88 545.437 471.795 545.01 470.966 544.247C470.136 543.483 469.622 542.438 469.523 541.315L458.947 413.916C458.916 413.546 458.748 413.2 458.477 412.946C458.206 412.692 457.85 412.548 457.478 412.541C457.107 412.535 456.746 412.666 456.466 412.911C456.186 413.155 456.006 413.494 455.962 413.863L440.773 541.475C440.642 542.568 440.116 543.576 439.292 544.307C438.469 545.038 437.406 545.442 436.305 545.443H420.981C419.792 545.441 418.653 544.969 417.81 544.131C416.968 543.293 416.491 542.155 416.483 540.967C416.449 532.951 416.395 524.877 416.34 516.802C415.854 444.88 415.351 370.51 430.368 341.374L430.505 341.109L484.698 340.182L484.834 340.48C501.23 376.31 496.254 456.355 491.441 533.763L490.978 541.222C490.905 542.364 490.4 543.436 489.566 544.22C488.732 545.004 487.631 545.441 486.487 545.443Z" fill="#1D384A"/>
      <path d="M460.814 244.425C474.378 244.425 485.375 233.428 485.375 219.864C485.375 206.299 474.378 195.303 460.814 195.303C447.249 195.303 436.253 206.299 436.253 219.864C436.253 233.428 447.249 244.425 460.814 244.425Z" fill="#A0616A"/>
      <path d="M427.329 345.623L428.005 317.463L423.133 295.491C421.902 290.051 421.974 284.396 423.343 278.989C424.711 273.581 427.338 268.574 431.008 264.373C434.579 260.194 439.088 256.918 444.166 254.813C449.243 252.707 454.747 251.832 460.228 252.258C460.581 252.285 460.936 252.315 461.292 252.347C465.975 252.768 470.525 254.129 474.67 256.346C478.816 258.564 482.473 261.593 485.423 265.254C488.435 268.936 490.675 273.186 492.008 277.752C493.342 282.317 493.743 287.104 493.187 291.828L487.293 343.345L427.329 345.623Z" fill="#1ABDD4"/>
      <path d="M406.465 396.093C407.623 395.188 408.57 394.041 409.237 392.731C409.904 391.421 410.276 389.98 410.326 388.511C410.376 387.042 410.104 385.579 409.528 384.227C408.952 382.874 408.086 381.665 406.992 380.683L420.82 347.732L402.57 351.16L392.236 381.925C390.709 383.872 389.949 386.312 390.1 388.783C390.251 391.253 391.303 393.582 393.057 395.329C394.811 397.075 397.145 398.118 399.616 398.258C402.087 398.399 404.524 397.629 406.465 396.093Z" fill="#A0616A"/>
      <path d="M510.808 400.043C509.703 399.074 508.823 397.874 508.232 396.528C507.64 395.182 507.351 393.723 507.385 392.253C507.418 390.784 507.773 389.339 508.425 388.021C509.077 386.704 510.01 385.545 511.159 384.627L499.227 350.943L517.253 355.404L525.82 386.707C527.234 388.738 527.854 391.218 527.562 393.675C527.271 396.133 526.088 398.399 524.237 400.042C522.387 401.686 519.998 402.594 517.523 402.594C515.048 402.594 512.659 401.686 510.808 400.043Z" fill="#A0616A"/>
      <path d="M408.66 379.947C408.026 379.947 407.4 379.813 406.821 379.554L396.3 374.841C395.288 374.389 394.479 373.579 394.027 372.567C393.576 371.554 393.515 370.411 393.856 369.356L411.504 314.536L418.324 273.237C418.566 271.769 419.101 270.365 419.897 269.109C420.693 267.853 421.734 266.769 422.957 265.923C424.18 265.077 425.561 264.486 427.018 264.184C428.474 263.882 429.976 263.877 431.435 264.168C432.894 264.459 434.279 265.04 435.508 265.877C436.738 266.714 437.786 267.79 438.591 269.04C439.396 270.291 439.942 271.691 440.195 273.156C440.448 274.622 440.404 276.123 440.065 277.572L429.7 321.864L412.965 376.759C412.684 377.682 412.114 378.49 411.339 379.064C410.564 379.638 409.625 379.947 408.66 379.947Z" fill="#1ABDD4"/>
      <path d="M509.022 379.947C508.058 379.947 507.119 379.638 506.344 379.064C505.568 378.49 504.998 377.682 504.717 376.759L487.991 321.895L477.617 277.572C477.278 276.123 477.234 274.622 477.487 273.156C477.74 271.691 478.286 270.291 479.091 269.04C479.896 267.79 480.945 266.714 482.174 265.877C483.404 265.04 484.789 264.458 486.247 264.167C487.706 263.877 489.208 263.882 490.665 264.184C492.121 264.485 493.502 265.077 494.725 265.923C495.949 266.769 496.989 267.853 497.785 269.109C498.581 270.365 499.116 271.769 499.359 273.237L506.196 314.609L523.827 369.356C524.167 370.411 524.106 371.554 523.655 372.567C523.204 373.579 522.394 374.389 521.382 374.841L510.861 379.554C510.283 379.813 509.656 379.947 509.022 379.947Z" fill="#1ABDD4"/>
      <path d="M461.319 192.714C454.493 189.758 445.576 193.437 442.821 200.347C441.106 204.647 441.63 209.498 442.575 214.03C443.52 218.562 444.868 223.085 444.723 227.712C444.578 232.34 442.585 237.251 438.48 239.392C436.027 240.671 433.158 240.813 430.499 241.576C427.84 242.339 425.096 244.123 424.713 246.862C424.133 251.007 429.161 254.163 429.127 258.348C429.092 262.782 423.55 265.415 422.832 269.79C422.709 271.072 422.912 272.363 423.425 273.544C423.937 274.725 424.741 275.756 425.761 276.54C427.819 278.086 430.157 279.218 432.646 279.873C451.794 285.993 472.182 287.155 491.901 283.249C495.819 282.468 499.852 281.411 502.896 278.824C505.941 276.236 507.682 271.707 505.932 268.115C503.309 262.731 494.979 262.424 492.076 257.184C490.335 254.042 491.136 250.183 491.503 246.609C492.45 237.378 494.634 226.595 492.341 217.604C490.269 209.48 485.771 198.983 479.341 193.604C474.728 189.744 465.92 191.502 460.023 192.693L461.319 192.714Z" fill="#181828"/>
      <path d="M624.109 546.287C609.689 565.598 579.757 567.63 579.757 567.63C579.757 567.63 573.204 538.353 587.623 519.042C602.043 499.731 631.975 497.699 631.975 497.699C631.975 497.699 638.529 526.976 624.109 546.287Z" fill="#19B3C8"/>
      <path d="M550.652 553.546C560.167 566.289 579.919 567.63 579.919 567.63C579.919 567.63 584.243 548.311 574.728 535.568C565.213 522.826 545.462 521.484 545.462 521.484C545.462 521.484 541.137 540.803 550.652 553.546Z" fill="#5CDAEB"/>
    </g>
  </g>
  <defs>
    <clipPath id="clip0_1_1019">
      <rect width="678.463" height="569.058" fill="white" transform="translate(0.5)"/>
    </clipPath>
    <clipPath id="clip1_1_1019">
      <rect width="644.463" height="569.058" fill="white" transform="translate(17.5)"/>
    </clipPath>
  </defs>
</svg>
