<?xml version="1.0" encoding="UTF-8" standalone="no"?>
<svg width="24" height="24" viewBox="0 0 24 24">
  <path
     d="M 20,3 H 5 C 3.9,3 3,3.9 3,5 v 14 c 0,1.1 0.9,2 2,2 H 16.908663 C 18.008663,21 22,17.111707 22,16.011707 V 5 C 22,3.9 21.1,3 20,3 m 0,2 V 8 H 5 V 5 Z m -5,14 h -5 v -9 h 5 z M 5,10 h 3 v 9 H 5 Z m 12,9 v -9 h 3 v 9 z"
     id="path273" />
  <path
     d="m 24.872336,20.548956 -0.82,-0.63 v -0.22 l 0.8,-0.63 c 0.16,-0.12 0.2,-0.34 0.1,-0.51 l -0.85,-1.48 c -0.07,-0.13 -0.21,-0.2 -0.35,-0.2 -0.05,0 -0.1,0.01 -0.15,0.03 l -0.95,0.38 c -0.08,-0.05 -0.11,-0.07 -0.19,-0.11 l -0.15,-1.01 c -0.03,-0.21 -0.2,-0.36 -0.4,-0.36 h -1.71 c -0.2,0 -0.37,0.15 -0.4,0.34 l -0.14,1.01 c -0.03,0.02 -0.07,0.03 -0.1,0.05 l -0.09,0.06 -0.95,-0.38 c -0.05,-0.02 -0.1,-0.03 -0.15,-0.03 -0.14,0 -0.27,0.07 -0.35,0.2 l -0.85,1.48 c -0.1,0.17 -0.06,0.39 0.1,0.51 l 0.8,0.63 v 0.23 l -0.8,0.63 c -0.16,0.12 -0.2,0.34 -0.1,0.51 l 0.85,1.48 c 0.07,0.13 0.21,0.2 0.35,0.2 0.05,0 0.1,-0.01 0.15,-0.03 l 0.95,-0.37 c 0.08,0.05 0.12,0.07 0.2,0.11 l 0.15,1.01 c 0.03,0.2 0.2,0.34 0.4,0.34 h 1.71 c 0.2,0 0.37,-0.15 0.4,-0.34 l 0.15,-1.01 c 0.03,-0.02 0.07,-0.03 0.1,-0.05 l 0.09,-0.06 0.95,0.38 c 0.05,0.02 0.1,0.03 0.15,0.03 0.14,0 0.27,-0.07 0.35,-0.2 l 0.85,-1.48 c 0.1,-0.17 0.06,-0.39 -0.1,-0.51 m -3.81,0.76 c -0.83,0 -1.5,-0.67 -1.5,-1.5 0,-0.83 0.67,-1.5 1.5,-1.5 0.83,0 1.5,0.67 1.5,1.5 0,0.83 -0.67,1.5 -1.5,1.5"
     id="path275" />
</svg>
