<svg width="29" height="28" viewBox="0 0 29 28" fill="none" xmlns="http://www.w3.org/2000/svg">
<path d="M27.1875 14C27.1875 20.762 21.5098 26.25 14.5 26.25C7.49016 26.25 1.8125 20.762 1.8125 14C1.8125 7.23187 7.49016 1.75 14.5 1.75C21.5098 1.75 27.1875 7.23187 27.1875 14Z" fill="#283544"/>
<path d="M20.4469 10.9002C20.3777 10.9392 18.7295 11.7622 18.7295 13.5869C18.8072 15.6678 20.8094 16.3976 20.8437 16.3976C20.8094 16.4366 20.5415 17.3917 19.7478 18.393C19.1179 19.2554 18.4188 20.125 17.3572 20.125C16.3474 20.125 15.9849 19.5502 14.8197 19.5502C13.5684 19.5502 13.2143 20.125 12.2563 20.125C11.1947 20.125 10.4438 19.2089 9.77959 18.3545C8.91668 17.2363 8.18324 15.4815 8.15734 13.7965C8.13989 12.9037 8.33015 12.026 8.81311 11.2805C9.49477 10.2398 10.7117 9.53333 12.0407 9.51004C13.059 9.47915 13.9652 10.139 14.5867 10.139C15.1822 10.139 16.2956 9.51004 17.5553 9.51004C18.0991 9.51054 19.5491 9.65792 20.4469 10.9002ZM14.5005 9.33177C14.3193 8.5164 14.8197 7.70104 15.2858 7.18093C15.8813 6.55193 16.8219 6.125 17.633 6.125C17.6848 6.94037 17.3566 7.74003 16.7701 8.32244C16.2438 8.95144 15.3376 9.42496 14.5005 9.33177Z" fill="white"/>
</svg>
