<svg width="27" height="27" viewBox="0 0 40 40" fill="none" xmlns="http://www.w3.org/2000/svg">
<rect width="40" height="40" rx="20" fill="#371F13"/>
<path d="M28.1673 24.547C28.1843 24.7173 28.1928 24.9344 28.1928 25.1984C28.1928 25.4538 28.1758 25.7518 28.1417 26.0924C28.1162 26.4245 28.0821 26.7481 28.0395 27.0631C27.9288 27.7784 27.8181 28.2893 27.7075 28.5958C25.8853 29.5069 23.5181 29.9625 20.606 29.9625C17.8812 29.9625 15.5566 29.243 13.6322 27.8039C12.2273 26.7566 11.2438 25.2878 10.6818 23.3975C10.3923 22.4268 10.2476 21.2474 10.2476 19.8595C10.2476 18.4631 10.5158 17.1475 11.0522 15.9128C11.5887 14.6696 12.338 13.6138 13.3002 12.7453C15.3012 10.9401 17.8982 10.0375 21.0913 10.0375C21.6874 10.0375 22.4665 10.0929 23.4287 10.2036C24.3909 10.3143 25.021 10.3824 25.319 10.4079L26.1875 10.4973C26.8432 10.5569 27.2732 10.5867 27.4775 10.5867H27.8863C27.9459 10.5867 28.0395 10.5782 28.1673 10.5612C28.1843 10.7655 28.1928 11.2466 28.1928 12.0045C28.1928 12.7623 28.0566 14.0353 27.7841 15.8234H26.1492C25.9874 14.5377 25.7831 13.6479 25.5361 13.154C24.8294 12.0215 23.2839 11.4553 20.8998 11.4553C18.5156 11.4553 16.6551 12.2386 15.3182 13.8054C14.041 15.2955 13.4023 17.2667 13.4023 19.719C13.4023 22.5545 14.2028 24.7726 15.8036 26.3734C17.2681 27.838 19.0563 28.5703 21.168 28.5703C22.6922 28.5703 23.8502 28.2808 24.6421 27.7018C25.4425 27.1142 26.0854 26.0626 26.5707 24.547H28.1673Z" fill="#FAF5EB"/>
</svg>
