<svg width="26" height="27" viewBox="0 0 26 27" fill="none" xmlns="http://www.w3.org/2000/svg">
<path d="M13 0.820679C20.1825 0.820679 26 6.63818 26 13.8207C25.9993 16.5445 25.1444 19.1995 23.5557 21.4121C21.967 23.6246 19.7245 25.2832 17.1437 26.1544C16.4937 26.2844 16.25 25.8782 16.25 25.5369C16.25 25.0982 16.2662 23.7007 16.2662 21.9619C16.2662 20.7432 15.86 19.9632 15.3888 19.5569C18.2812 19.2319 21.32 18.1269 21.32 13.1382C21.32 11.7082 20.8162 10.5544 19.9875 9.64443C20.1175 9.31943 20.5725 7.98693 19.8575 6.19943C19.8575 6.19943 18.7687 5.84193 16.2825 7.53193C15.2425 7.23943 14.1375 7.09318 13.0325 7.09318C11.9275 7.09318 10.8225 7.23943 9.7825 7.53193C7.29625 5.85818 6.2075 6.19943 6.2075 6.19943C5.4925 7.98693 5.9475 9.31943 6.0775 9.64443C5.24875 10.5544 4.745 11.7244 4.745 13.1382C4.745 18.1107 7.7675 19.2319 10.66 19.5569C10.2863 19.8819 9.945 20.4507 9.83125 21.2957C9.08375 21.6369 7.215 22.1894 6.045 20.2232C5.80125 19.8332 5.07 18.8744 4.04625 18.8907C2.9575 18.9069 3.6075 19.5082 4.0625 19.7519C4.615 20.0607 5.24875 21.2144 5.395 21.5882C5.655 22.3194 6.5 23.7169 9.76625 23.1157C9.76625 24.2044 9.7825 25.2282 9.7825 25.5369C9.7825 25.8782 9.53875 26.2682 8.88875 26.1544C6.29954 25.2926 4.04744 23.6373 2.45195 21.4235C0.856451 19.2096 -0.00143078 16.5496 1.79126e-06 13.8207C1.79126e-06 6.63818 5.8175 0.820679 13 0.820679Z" fill="#24292F"/>
</svg>
