<svg width="20" height="20" viewBox="0 0 20 20" fill="currentColor" xmlns="http://www.w3.org/2000/svg">
<path d="M8.95817 7.70833L7.7915 6.52083L9.31234 5H6.52067C6.39567 5.36111 6.20123 5.67361 5.93734 5.9375C5.67345 6.20139 5.36095 6.39583 4.99984 6.52083V13.4792C5.48595 13.6597 5.88539 13.9617 6.19817 14.385C6.51039 14.8089 6.6665 15.2917 6.6665 15.8333C6.6665 16.5278 6.42345 17.1181 5.93734 17.6042C5.45123 18.0903 4.86095 18.3333 4.1665 18.3333C3.47206 18.3333 2.88178 18.0903 2.39567 17.6042C1.90956 17.1181 1.6665 16.5278 1.6665 15.8333C1.6665 15.2917 1.82262 14.8089 2.13484 14.385C2.44762 13.9617 2.84706 13.6597 3.33317 13.4792V6.52083C2.84706 6.34028 2.44762 6.03806 2.13484 5.61417C1.82262 5.19083 1.6665 4.70833 1.6665 4.16667C1.6665 3.47222 1.90956 2.88194 2.39567 2.39583C2.88178 1.90972 3.47206 1.66667 4.1665 1.66667C4.70817 1.66667 5.19095 1.82278 5.61484 2.135C6.03817 2.44778 6.34011 2.84722 6.52067 3.33333H9.31234L7.7915 1.8125L8.95817 0.625L12.4998 4.16667L8.95817 7.70833ZM15.8332 1.66667C16.5276 1.66667 17.1179 1.90972 17.604 2.39583C18.0901 2.88194 18.3332 3.47222 18.3332 4.16667C18.3332 4.86111 18.0901 5.45139 17.604 5.9375C17.1179 6.42361 16.5276 6.66667 15.8332 6.66667C15.1387 6.66667 14.5484 6.42361 14.0623 5.9375C13.5762 5.45139 13.3332 4.86111 13.3332 4.16667C13.3332 3.47222 13.5762 2.88194 14.0623 2.39583C14.5484 1.90972 15.1387 1.66667 15.8332 1.66667ZM4.1665 16.6667C4.40261 16.6667 4.60067 16.5867 4.76067 16.4267C4.92011 16.2672 4.99984 16.0694 4.99984 15.8333C4.99984 15.5972 4.92011 15.3994 4.76067 15.24C4.60067 15.08 4.40261 15 4.1665 15C3.93039 15 3.73234 15.08 3.57234 15.24C3.41289 15.3994 3.33317 15.5972 3.33317 15.8333C3.33317 16.0694 3.41289 16.2672 3.57234 16.4267C3.73234 16.5867 3.93039 16.6667 4.1665 16.6667ZM4.1665 5C4.40261 5 4.60067 4.92028 4.76067 4.76083C4.92011 4.60083 4.99984 4.40278 4.99984 4.16667C4.99984 3.93056 4.92011 3.7325 4.76067 3.5725C4.60067 3.41306 4.40261 3.33333 4.1665 3.33333C3.93039 3.33333 3.73234 3.41306 3.57234 3.5725C3.41289 3.7325 3.33317 3.93056 3.33317 4.16667C3.33317 4.40278 3.41289 4.60083 3.57234 4.76083C3.73234 4.92028 3.93039 5 4.1665 5ZM15.8332 5C16.0693 5 16.2671 4.92028 16.4265 4.76083C16.5865 4.60083 16.6665 4.40278 16.6665 4.16667C16.6665 3.93056 16.5865 3.7325 16.4265 3.5725C16.2671 3.41306 16.0693 3.33333 15.8332 3.33333C15.5971 3.33333 15.3993 3.41306 15.2398 3.5725C15.0798 3.7325 14.9998 3.93056 14.9998 4.16667C14.9998 4.40278 15.0798 4.60083 15.2398 4.76083C15.3993 4.92028 15.5971 5 15.8332 5ZM12.9582 10.1667L14.1457 11.3333L9.99984 15.4792V16.6667H11.1665L15.3332 12.5L16.5207 13.6667L11.8748 18.3333H8.33317V14.7917L12.9582 10.1667ZM16.5207 13.6667L12.9582 10.1667L14.3123 8.8125C14.6457 8.47917 15.0451 8.3125 15.5107 8.3125C15.9757 8.3125 16.3679 8.47917 16.6873 8.8125L17.854 10C18.1734 10.3194 18.3332 10.7083 18.3332 11.1667C18.3332 11.625 18.1734 12.0139 17.854 12.3333L16.5207 13.6667Z" />
</svg>
