<svg width="64" height="64" viewBox="0 0 64 64" fill="none" xmlns="http://www.w3.org/2000/svg">
<path d="M6.00139 40.8503C5.9698 39.2819 6.47617 37.7499 7.43624 36.5093C8.39632 35.2687 9.75223 34.3942 11.2784 34.0313C12.7848 33.7388 14.1599 32.977 15.2067 31.855C16.2534 30.7329 16.9181 29.3083 17.1054 27.7853C17.1776 26.619 17.0308 25.4495 16.6724 24.3373C16.4108 22.9551 16.5732 21.5261 17.1382 20.2378C17.7032 18.9495 18.6444 17.8621 19.8384 17.1183C21.0512 16.3433 22.4707 15.9548 23.909 16.0042C25.3474 16.0536 26.7369 16.5385 27.8937 17.3948C29.0505 18.2511 29.92 19.4384 30.3873 20.7997C30.8545 22.161 30.8974 23.6321 30.5104 25.0183C29.6194 28.0183 27.4434 29.4983 24.5424 30.2883C21.3634 31.1543 18.9354 35.0133 19.8054 38.2583C20.1584 39.2898 20.2836 40.3856 20.1726 41.4703C20.0616 42.5549 19.717 43.6026 19.1624 44.5413C18.3562 45.8627 17.1403 46.8844 15.6997 47.4509C14.2592 48.0173 12.673 48.0975 11.1827 47.6792C9.69241 47.2609 8.37963 46.3671 7.44427 45.1337C6.50891 43.9004 6.00224 42.3952 6.00139 40.8473V40.8503Z" fill="#09BCD4"/>
<path d="M26.0284 45.3133C24.9182 43.9461 24.3706 42.2072 24.4971 40.4505C24.6236 38.6938 25.4147 37.0513 26.7094 35.8573C28.0462 34.6199 29.8127 33.9523 31.6338 33.9964C33.4548 34.0405 35.187 34.7927 36.4624 36.0933C37.6044 37.4125 39.2149 38.2356 40.9531 38.3885C42.6912 38.5413 44.4207 38.0119 45.7754 36.9123C46.4131 36.2062 47.1271 35.573 47.9044 35.0243C49.1532 34.4267 50.5078 34.0817 51.8904 34.0093C52.8693 34.0284 53.8333 34.2533 54.7197 34.6692C55.6061 35.0852 56.395 35.683 57.0353 36.4237C57.6756 37.1645 58.153 38.0316 58.4363 38.9689C58.7196 39.9061 58.8026 40.8925 58.6799 41.8639C58.5572 42.8353 58.2315 43.77 57.724 44.6074C57.2165 45.4447 56.5385 46.1659 55.7341 46.7241C54.9297 47.2824 54.0169 47.6652 53.0549 47.8477C52.0929 48.0301 51.1033 48.0082 50.1504 47.7833C49.5648 47.75 49.0047 47.5323 48.5504 47.1613C48.3004 46.5363 47.6614 46.4733 47.1654 46.2043C46.0995 45.0793 44.7534 44.2582 43.2654 43.8253C42.0165 43.5243 40.7093 43.5684 39.4835 43.9529C38.2578 44.3374 37.1596 45.0479 36.3064 46.0083C35.1633 47.1568 33.6471 47.8586 32.0318 47.987C30.4165 48.1153 28.8086 47.6618 27.4984 46.7083C26.9894 46.2703 26.5664 45.7323 26.0284 45.3133Z" fill="#09BCD4"/>
<path d="M36.3914 27.5123C34.2294 25.3253 34.0594 20.3683 37.1164 17.8123C38.1203 16.8904 39.3778 16.291 40.7262 16.0916C42.0745 15.8923 43.4517 16.1023 44.6794 16.6943C45.9587 17.1994 47.0465 18.0945 47.7885 19.2525C48.5305 20.4106 48.8891 21.7729 48.8134 23.1463C48.8152 24.4781 48.4355 25.7825 47.719 26.9052C47.0026 28.0279 45.9796 28.9218 44.771 29.4812C43.5623 30.0406 42.2187 30.242 40.8992 30.0616C39.5797 29.8812 38.3395 29.3266 37.3254 28.4633C37.254 28.2432 37.1325 28.0428 36.9704 27.8778C36.8083 27.7127 36.6101 27.5876 36.3914 27.5123Z" fill="#09BCD4"/>
</svg>
