<?xml version="1.0" encoding="utf-8"?>
<!-- Generator: Adobe Illustrator 19.0.0, SVG Export Plug-In . SVG Version: 6.00 Build 0)  -->
<svg version="1.1" id="Layer_1" xmlns="http://www.w3.org/2000/svg" xmlns:xlink="http://www.w3.org/1999/xlink" x="0px" y="0px"
	 viewBox="0 0 250 32.8" style="enable-background:new 0 0 250 32.8;" xml:space="preserve">
<style type="text/css">
	.st0{fill:#FFFFFF;}
</style>
<g id="XMLID_123_">
	<path id="XMLID_98_" class="st0" d="M77.5,2.5c0.3-0.6,0.6-1.1,1.4-1.1h4.5c0.8,0,1.2,0.4,1.4,1.1L95,29.2c0.3,0.8,0.1,1.5-0.8,1.5
		h-4.7c-1,0-1.4-0.5-1.6-1.2l-1.7-4.9H75.8l-1.7,5.1c-0.2,0.5-0.5,1-1.3,1h-4.5c-0.9,0-1.1-0.7-0.8-1.5L77.5,2.5z M84.4,19.5
		l-2.7-8.3c-0.3-0.9-0.5-1.7-0.8-2.4h-0.1c-0.2,0.8-0.5,1.6-0.8,2.5l-2.7,8.2H84.4z"/>
	<path id="XMLID_96_" class="st0" d="M117.3,29.4c0,0.9-0.5,1.2-1.3,1.2h-16c-0.9,0-1.3-0.2-1.3-1.3V2.6c0-0.8,0.4-1.2,1.2-1.2h4.3
		c0.9,0,1.3,0.3,1.3,1.3V25h10.7c0.8,0,1.2,0.4,1.2,1.2V29.4z"/>
	<path id="XMLID_94_" class="st0" d="M133.8,14.4l10,14.8c0.2,0.2,0.3,0.5,0.3,0.8c0,0.4-0.2,0.7-1,0.7h-5.1c-1.2,0-1.8-0.4-2.4-1.2
		l-6.2-9.9l-1.8,2.3l0,7.5c0,0.9-0.4,1.2-1.2,1.2h-4.2c-0.9,0-1.3-0.3-1.3-1.2V2.5c0-0.8,0.5-1.1,1.3-1.1h4.2c0.8,0,1.2,0.2,1.2,1.1
		l0,9.9l7.6-10.1c0.5-0.7,1-0.9,1.8-0.9h5.1c0.8,0,1,0.3,1,0.7c0,0.3-0.2,0.5-0.3,0.8L133.8,14.4z"/>
	<path id="XMLID_92_" class="st0" d="M154.9,13.1h9.6c0.9,0,1.3,0.5,1.3,1.1v3.1c0,0.8-0.4,1.2-1.2,1.2h-9.6v6.6h11
		c0.8,0,1.2,0.3,1.2,1.1v3.1c0,0.8-0.4,1.2-1.2,1.2h-16.3c-1,0-1.4-0.3-1.4-1.3V2.6c0-0.7,0.4-1.2,1.1-1.2h16.8c0.8,0,1.1,0.4,1.1,1
		l-0.4,3.4c-0.1,0.9-0.6,1.1-1.6,1.1h-10.2V13.1z"/>
	<path id="XMLID_90_" class="st0" d="M197.5,14.5l-6.4,15.2c-0.3,0.8-0.9,0.9-1.4,0.9h-1.6c-0.8,0-1.3-0.1-1.7-1l-7.3-15.2h-0.1
		l-0.3,14.9c0,1.2-0.5,1.3-1.4,1.3H174c-1.1,0-1.5-0.4-1.4-1.3l1.1-26.5c0-1,0.5-1.3,1.3-1.3h3c1,0,1.3,0.3,1.7,1.1l9.3,19h0.1
		l8.4-19c0.3-0.7,0.8-1.1,1.7-1.1h2.9c0.8,0,1.1,0.3,1.2,1.1l1.4,26.9c0,0.8-0.3,1.3-1.1,1.3h-4.2c-1.1,0-1.3-0.5-1.4-1.7
		L197.5,14.5L197.5,14.5z"/>
	<path id="XMLID_87_" class="st0" d="M236.5,31.2c-8.5,0-13.2-6-13.2-15.1c0-9,5.1-15.3,13.5-15.3c8.8,0,13.2,6.5,13.2,15.1
		C250,25.3,244.4,31.2,236.5,31.2z M236.6,6.5c-3.7,0-6.1,3.2-6.1,9.5c0,6.7,2.3,9.6,6.3,9.6c3.7,0,6.1-3,6.1-9.5
		C242.8,9.2,240.6,6.5,236.6,6.5z"/>
	<path id="XMLID_47_" class="st0" d="M24.3,11c-1.1,1.8-2.8,3-4.8,3.4c0,0-0.1,0-0.1,0C17.7,14.9,16,16,15,17.8
		c-1,1.7-1.2,3.6-0.8,5.4c0.6,1.9,0.5,4.1-0.6,6c-2.1,3.5-6.5,4.6-10,2.5C0.1,29.7-1,25.2,1,21.8c0.6-1,1.4-1.8,2.3-2.4
		c0.9-0.6,1.9-1,2.9-1.1c1.7-0.5,3.2-1.6,4.2-3.2c0.5-0.9,0.8-1.8,1-2.7c0.1-0.9,0.1-1.8-0.1-2.7c-0.7-1.9-0.5-4.1,0.6-6
		c2-3.5,6.5-4.6,10-2.5C25.3,3.1,26.4,7.5,24.3,11z"/>
	<path id="XMLID_48_" class="st0" d="M54.1,25.6c0,4-3.2,7.2-7.2,7.2c-2.1,0-4-0.9-5.3-2.3l0,0c-1.3-1.3-3.1-2.2-5.1-2.2
		c-1.9,0-3.7,0.8-5,2c-1.3,1.5-3.2,2.5-5.4,2.5c-4,0-7.2-3.2-7.2-7.2c0-3.9,3.2-7.2,7.2-7.2c2.2,0,4.2,1,5.5,2.6
		c1.3,1.2,3,1.9,4.8,1.9c1,0,1.9-0.2,2.8-0.6c0.8-0.4,1.6-0.9,2.2-1.5c1.3-1.5,3.3-2.5,5.4-2.5C50.9,18.5,54.1,21.7,54.1,25.6z"/>
	<circle id="XMLID_82_" class="st0" cx="36.7" cy="7.3" r="7.2"/>
	<path id="XMLID_80_" class="st0" d="M217.8,2.5v27c0,0.6-0.5,1.1-1.1,1.1h-4.5c-0.6,0-1.1-0.5-1.1-1.1v-27c0-0.6,0.5-1.1,1.1-1.1
		h4.5C217.3,1.4,217.8,1.9,217.8,2.5z"/>
</g>
</svg>
