<svg width="20" height="20" viewBox="0 0 20 20" xmlns="http://www.w3.org/2000/svg">
<path d="M3 20C2.16667 20 1.45833 19.7083 0.875 19.125C0.291667 18.5417 0 17.8333 0 17C0 16.35 0.1875 15.7708 0.5625 15.2625C0.9375 14.7542 1.41667 14.3917 2 14.175V5.825C1.41667 5.60833 0.9375 5.24583 0.5625 4.7375C0.1875 4.22917 0 3.65 0 3C0 2.16667 0.291667 1.45833 0.875 0.875C1.45833 0.291667 2.16667 0 3 0C3.65 0 4.22917 0.1875 4.7375 0.5625C5.24583 0.9375 5.60833 1.41667 5.825 2H14.175C14.375 1.41667 14.7292 0.9375 15.2375 0.5625C15.7458 0.1875 16.3333 0 17 0C17.8333 0 18.5417 0.291667 19.125 0.875C19.7083 1.45833 20 2.16667 20 3C20 3.66667 19.8125 4.25417 19.4375 4.7625C19.0625 5.27083 18.5833 5.625 18 5.825V14.175C18.5833 14.3917 19.0625 14.7542 19.4375 15.2625C19.8125 15.7708 20 16.35 20 17C20 17.8333 19.7083 18.5417 19.125 19.125C18.5417 19.7083 17.8333 20 17 20C16.35 20 15.7708 19.8125 15.2625 19.4375C14.7542 19.0625 14.3917 18.5833 14.175 18H5.825C5.60833 18.5833 5.24583 19.0625 4.7375 19.4375C4.22917 19.8125 3.65 20 3 20ZM3 4C3.28333 4 3.52083 3.90417 3.7125 3.7125C3.90417 3.52083 4 3.28333 4 3C4 2.71667 3.90417 2.47917 3.7125 2.2875C3.52083 2.09583 3.28333 2 3 2C2.71667 2 2.47917 2.09583 2.2875 2.2875C2.09583 2.47917 2 2.71667 2 3C2 3.28333 2.09583 3.52083 2.2875 3.7125C2.47917 3.90417 2.71667 4 3 4ZM17 4C17.2833 4 17.5208 3.90417 17.7125 3.7125C17.9042 3.52083 18 3.28333 18 3C18 2.71667 17.9042 2.47917 17.7125 2.2875C17.5208 2.09583 17.2833 2 17 2C16.7167 2 16.4792 2.09583 16.2875 2.2875C16.0958 2.47917 16 2.71667 16 3C16 3.28333 16.0958 3.52083 16.2875 3.7125C16.4792 3.90417 16.7167 4 17 4ZM5.825 16H14.175C14.325 15.5667 14.5583 15.1917 14.875 14.875C15.1917 14.5583 15.5667 14.325 16 14.175V5.825C15.5667 5.675 15.1917 5.44167 14.875 5.125C14.5583 4.80833 14.325 4.43333 14.175 4H5.825C5.675 4.43333 5.44167 4.80833 5.125 5.125C4.80833 5.44167 4.43333 5.675 4 5.825V14.175C4.43333 14.325 4.80833 14.5583 5.125 14.875C5.44167 15.1917 5.675 15.5667 5.825 16ZM17 18C17.2833 18 17.5208 17.9042 17.7125 17.7125C17.9042 17.5208 18 17.2833 18 17C18 16.7167 17.9042 16.4792 17.7125 16.2875C17.5208 16.0958 17.2833 16 17 16C16.7167 16 16.4792 16.0958 16.2875 16.2875C16.0958 16.4792 16 16.7167 16 17C16 17.2833 16.0958 17.5208 16.2875 17.7125C16.4792 17.9042 16.7167 18 17 18ZM3 18C3.28333 18 3.52083 17.9042 3.7125 17.7125C3.90417 17.5208 4 17.2833 4 17C4 16.7167 3.90417 16.4792 3.7125 16.2875C3.52083 16.0958 3.28333 16 3 16C2.71667 16 2.47917 16.0958 2.2875 16.2875C2.09583 16.4792 2 16.7167 2 17C2 17.2833 2.09583 17.5208 2.2875 17.7125C2.47917 17.9042 2.71667 18 3 18Z" />
</svg>
