<svg width="22" height="20" viewBox="0 0 22 20" xmlns="http://www.w3.org/2000/svg">
  <path
    d="M2 20C1.45 20 0.979167 19.8042 0.5875 19.4125C0.195833 19.0208 0 18.55 0 18V6C0 5.45 0.195833 4.97917 0.5875 4.5875C0.979167 4.19583 1.45 4 2 4H5.15L7 2H13V4H7.875L6.05 6H2V18H18V9H20V18C20 18.55 19.8042 19.0208 19.4125 19.4125C19.0208 19.8042 18.55 20 18 20H2ZM18 6V4H16V2H18V0H20V2H22V4H20V6H18ZM10 16.5C11.25 16.5 12.3125 16.0625 13.1875 15.1875C14.0625 14.3125 14.5 13.25 14.5 12C14.5 10.75 14.0625 9.6875 13.1875 8.8125C12.3125 7.9375 11.25 7.5 10 7.5C8.75 7.5 7.6875 7.9375 6.8125 8.8125C5.9375 9.6875 5.5 10.75 5.5 12C5.5 13.25 5.9375 14.3125 6.8125 15.1875C7.6875 16.0625 8.75 16.5 10 16.5ZM10 14.5C9.3 14.5 8.70833 14.2583 8.225 13.775C7.74167 13.2917 7.5 12.7 7.5 12C7.5 11.3 7.74167 10.7083 8.225 10.225C8.70833 9.74167 9.3 9.5 10 9.5C10.7 9.5 11.2917 9.74167 11.775 10.225C12.2583 10.7083 12.5 11.3 12.5 12C12.5 12.7 12.2583 13.2917 11.775 13.775C11.2917 14.2583 10.7 14.5 10 14.5Z" />
</svg>
